<svg width="80" height="80" viewBox="0 0 80 80" fill="none" xmlns="http://www.w3.org/2000/svg">
<path d="M35.5543 28.2617H32.478V31.3355H35.5543V28.2617Z" fill="#CEB364"/>
<path d="M42.2226 28.2617H39.1465V31.3355H42.2226V28.2617Z" fill="#CEB364"/>
<path d="M48.8905 28.2617H45.8145V31.3355H48.8905V28.2617Z" fill="#CEB364"/>
<path d="M35.5543 34.7678H32.478V37.8439H35.5543V34.7678Z" fill="#CEB364"/>
<path d="M42.2226 34.7678H39.1465V37.8439H42.2226V34.7678Z" fill="#CEB364"/>
<path d="M48.8905 34.7678H45.8145V37.8439H48.8905V34.7678Z" fill="#CEB364"/>
<path d="M35.5543 41.2776H32.478V44.3513H35.5543V41.2776Z" fill="#CEB364"/>
<path d="M42.2226 41.2776H39.1465V44.3513H42.2226V41.2776Z" fill="#CEB364"/>
<path d="M48.8905 41.2776H45.8145V44.3513H48.8905V41.2776Z" fill="#CEB364"/>
<path d="M35.5543 47.7834H32.478V50.8595H35.5543V47.7834Z" fill="#CEB364"/>
<path d="M42.2226 47.7834H39.1465V50.8595H42.2226V47.7834Z" fill="#CEB364"/>
<path d="M48.8905 47.7834H45.8145V50.8595H48.8905V47.7834Z" fill="#CEB364"/>
<path d="M35.5543 54.292H32.478V57.367H35.5543V54.292Z" fill="#CEB364"/>
<path d="M14.187 37.8452H11.1133V40.9202H14.187V37.8452Z" fill="#CEB364"/>
<path d="M14.187 44.3538H11.1133V47.4288H14.187V44.3538Z" fill="#CEB364"/>
<path d="M14.187 50.8621H11.1133V53.9369H14.187V50.8621Z" fill="#CEB364"/>
<path d="M14.187 57.3694H11.1133V60.4444H14.187V57.3694Z" fill="#CEB364"/>
<path d="M14.187 63.8767H11.1133V66.9517H14.187V63.8767Z" fill="#CEB364"/>
<path d="M21.8809 37.8452H18.8071V40.9202H21.8809V37.8452Z" fill="#CEB364"/>
<path d="M21.8809 44.3538H18.8071V47.4288H21.8809V44.3538Z" fill="#CEB364"/>
<path d="M21.8809 50.8621H18.8071V53.9369H21.8809V50.8621Z" fill="#CEB364"/>
<path d="M21.8809 57.3694H18.8071V60.4444H21.8809V57.3694Z" fill="#CEB364"/>
<path d="M21.8809 63.8767H18.8071V66.9517H21.8809V63.8767Z" fill="#CEB364"/>
<path d="M42.2226 54.292H39.1465V57.367H42.2226V54.292Z" fill="#CEB364"/>
<path d="M48.8905 54.292H45.8145V57.367H48.8905V54.292Z" fill="#CEB364"/>
<path d="M35.5543 60.8003H32.478V63.8753H35.5543V60.8003Z" fill="#CEB364"/>
<path d="M42.2226 60.8003H39.1465V63.8753H42.2226V60.8003Z" fill="#CEB364"/>
<path d="M48.8905 60.8003H45.8145V63.8753H48.8905V60.8003Z" fill="#CEB364"/>
<path d="M68.7185 47.0947H58.4624V48.8838H68.7185V47.0947Z" fill="#CEB364"/>
<path d="M68.7185 52.3347H58.4624V54.1227H68.7185V52.3347Z" fill="#CEB364"/>
<path d="M68.7185 57.5713H58.4624V59.3605H68.7185V57.5713Z" fill="#CEB364"/>
<path d="M68.7185 62.8091H58.4624V64.5983H68.7185V62.8091Z" fill="#CEB364"/>
<path d="M75.8984 74.3031V39.4323H56.0684V20.9687H49.3042V14.9823H47.2536V9.79931H41.8675V1.59399H39.4758V9.79931H34.1153V14.9823H32.0645V20.9687H25.3003V30.6151H4.10375V74.3031H0V78.4059H5.12922H26.3256H28.3763H52.9922H55.0428H74.873H80V74.3031H75.8984ZM26.3256 75.3285H18.3983V69.8595H15.1073V75.3285H7.18V33.6923H26.3258V75.3285H26.3256ZM37.1912 12.8766H44.175V15.7145H37.1912V12.8766ZM35.1428 18.0584H46.228V21.9952H35.1428V18.0584ZM52.9923 40.4577V75.3284H43.2478V67.8087H38.1209V75.3284H28.3764V31.6417V24.0459H33.0898H48.2789H52.9923V40.4577ZM72.82 75.3285H65.5769V69.8595H62.2859V75.3285H55.0428V42.5085H72.8198V75.3285H72.82Z" fill="#CEB364"/>
</svg>
