<svg width="80" height="80" viewBox="0 0 80 80" fill="none" xmlns="http://www.w3.org/2000/svg">
<path d="M28.8753 34.7251C25.2741 34.7251 22.3442 37.6548 22.3442 41.2562C22.3442 44.8574 25.2739 47.7873 28.8753 47.7873C32.4767 47.7873 35.4064 44.8576 35.4064 41.2562C35.4064 37.6548 32.4766 34.7251 28.8753 34.7251ZM28.8753 44.4379C27.1208 44.4379 25.6936 43.0106 25.6936 41.2562C25.6936 39.5017 27.121 38.0745 28.8753 38.0745C30.6297 38.0745 32.0571 39.5018 32.0571 41.2562C32.0572 43.0106 30.6297 44.4379 28.8753 44.4379Z" fill="#CEB364"/>
<path d="M51.1161 34.7251C47.5148 34.7251 44.585 37.6548 44.585 41.2562C44.585 44.8574 47.5147 47.7873 51.1161 47.7873C54.7175 47.7873 57.6471 44.8576 57.6471 41.2562C57.6471 37.6548 54.7173 34.7251 51.1161 34.7251ZM51.1161 44.4379C49.3615 44.4379 47.9343 43.0106 47.9343 41.2562C47.9343 39.5017 49.3617 38.0745 51.1161 38.0745C52.8706 38.0745 54.2978 39.5018 54.2978 41.2562C54.2979 43.0106 52.8704 44.4379 51.1161 44.4379Z" fill="#CEB364"/>
<path d="M75.323 61.45C72.7039 58.831 69.3348 57.2349 65.7005 56.8605V29.9524H67.3852C68.31 29.9524 69.0598 29.2027 69.0598 28.2777C69.0598 27.3527 68.3102 26.603 67.3852 26.603H65.7005V21.9978V11.1252C65.7069 11.0661 65.7105 11.0061 65.7105 10.9453V7.26111C65.7105 6.33627 64.9608 5.58643 64.0358 5.58643C63.1108 5.58643 62.3611 6.33611 62.3611 7.26111V9.27064H57.6906V7.26111C57.6906 6.33627 56.9409 5.58643 56.0159 5.58643C55.0911 5.58643 54.3412 6.33611 54.3412 7.26111V9.27064H49.6708V7.26111C49.6708 6.33627 48.9211 5.58643 47.9961 5.58643C47.0712 5.58643 46.3214 6.33611 46.3214 7.26111V10.9453C46.3214 11.0063 46.3252 11.0664 46.3314 11.1258V20.3231H33.6595V11.1805C33.6705 11.1035 33.678 11.0255 33.678 10.9453V7.26111C33.678 6.33627 32.9283 5.58643 32.0033 5.58643C31.0783 5.58643 30.3286 6.33611 30.3286 7.26111V9.27064H25.6581V7.26111C25.6581 6.33627 24.9084 5.58643 23.9834 5.58643C23.0584 5.58643 22.3088 6.33611 22.3088 7.26111V9.27064H17.6383V7.26111C17.6383 6.33627 16.8886 5.58643 15.9636 5.58643C15.0386 5.58643 14.2889 6.33611 14.2889 7.26111V10.9453V21.9978V26.603H12.6148C11.69 26.603 10.9402 27.3527 10.9402 28.2777C10.9402 29.2027 11.6898 29.9524 12.6148 29.9524H14.2895V56.8619C10.6589 57.238 7.29375 58.8335 4.67734 61.4499C1.66109 64.4639 0 68.4733 0 72.7389C0 73.6638 0.749688 74.4136 1.67469 74.4136H15.9642H64.0258C64.0275 74.4136 64.0291 74.4133 64.0308 74.4133C64.0325 74.4133 64.0341 74.4136 64.0358 74.4136H78.3253C79.2502 74.4136 80 73.6639 80 72.7389C80 68.4733 78.3389 64.4639 75.323 61.45ZM14.2895 71.0641H3.45859C3.81906 68.3285 5.06109 65.8013 7.04531 63.8183C9.02828 61.8353 11.5553 60.5938 14.2895 60.2333V71.0641ZM17.6388 12.62H22.3092V14.2947C22.3092 15.2196 23.0589 15.9694 23.9839 15.9694C24.9089 15.9694 25.6586 15.2197 25.6586 14.2947V12.62H30.3106V20.3233H17.6388V12.62ZM38.3203 70.9805H33.2964V61.6027C33.2964 58.4872 35.4344 55.8617 38.3203 55.1163V70.9805ZM46.6934 70.9805H41.6695V55.1161C44.5555 55.8616 46.6934 58.4872 46.6934 61.6025V70.9805ZM62.3511 26.603H34.9761C34.0513 26.603 33.3014 27.3527 33.3014 28.2777C33.3014 29.2027 34.0511 29.9524 34.9761 29.9524H62.3511V71.0642H50.0427V61.6027C50.0427 56.6331 46.4153 52.497 41.6695 51.697V46.6985C41.6695 45.7736 40.9198 45.0238 39.9948 45.0238C39.0698 45.0238 38.3202 45.7735 38.3202 46.6985V51.697C33.5745 52.497 29.947 56.633 29.947 61.6027V71.0642H17.6386V58.4492V29.9524H21.6342C22.5591 29.9524 23.3089 29.2027 23.3089 28.2777C23.3089 27.3527 22.5592 26.603 21.6342 26.603H17.6386V23.6724H31.9852H48.0062H62.3511V26.603ZM62.3511 20.3233H49.6809V12.62H54.3414V14.2947C54.3414 15.2196 55.0911 15.9694 56.0161 15.9694C56.9409 15.9694 57.6908 15.2197 57.6908 14.2947V12.62H62.3512V20.3233H62.3511ZM65.7105 71.0644V71.0642V60.2335C68.4448 60.5941 70.9717 61.8355 72.955 63.8188C74.9389 65.8014 76.1808 68.3285 76.5414 71.0644H65.7105Z" fill="#CEB364"/>
<path d="M29.6727 26.603H27.4403C26.5155 26.603 25.7656 27.3527 25.7656 28.2777C25.7656 29.2027 26.5153 29.9524 27.4403 29.9524H29.6727C30.5975 29.9524 31.3473 29.2027 31.3473 28.2777C31.3473 27.3527 30.5975 26.603 29.6727 26.603Z" fill="#CEB364"/>
</svg>
