<svg width="80" height="80" viewBox="0 0 80 80" fill="none" xmlns="http://www.w3.org/2000/svg">
<path d="M47.7405 4.58351C46.8855 4.58039 46.1915 5.27416 46.1949 6.12923V10.7422H41.5789C40.7283 10.7391 40.0362 11.4253 40.0332 12.2758V16.9038H18.4839C18.431 16.9007 18.3806 16.9007 18.3276 16.9038C17.5396 16.9822 16.9371 17.6455 16.9383 18.4375V23.0625H15.4046C15.3516 23.0594 15.2982 23.0594 15.2452 23.0625C14.4572 23.1409 13.8578 23.8042 13.8589 24.5961V29.2242H12.3253C12.2723 29.2211 12.2189 29.2211 12.1659 29.2242C11.3779 29.3026 10.7785 29.9659 10.7796 30.7578V72.3317H9.24594C9.19281 72.3286 9.1397 72.3286 9.08657 72.3317C7.03205 72.438 7.19142 75.5206 9.24594 75.414H70.8355C72.8904 75.414 72.8904 72.3317 70.8355 72.3317H69.2898V18.4375C69.2867 17.5913 68.6023 16.9068 67.7562 16.9038V6.12923C67.7592 5.27416 67.0655 4.58025 66.2105 4.58351H47.7405ZM49.2742 7.66285H64.6738V16.9038H61.5945V12.2758C61.5914 11.4253 60.8994 10.7388 60.0488 10.7422H49.2742V7.66285ZM43.1155 13.8214H58.5152V16.9038H43.1155V13.8214ZM20.0206 19.9831H38.4995V23.0625H20.0206V19.9831ZM41.5789 19.9831H66.2105V72.3317H61.5945V63.0936C61.5945 61.4144 60.1945 60.0114 58.5152 60.0114H53.8902V50.3374C54.8043 49.7986 55.4358 48.8116 55.4358 47.691V44.6117C55.4358 42.9324 54.0328 41.5325 52.3535 41.5325C48.7628 41.5324 45.1708 41.5325 41.5789 41.5325V19.9831ZM46.0475 23.0625C44.0429 23.2037 44.1859 26.1921 46.1949 26.1417H61.5945C63.694 26.1889 63.694 23.0153 61.5945 23.0625H46.1949C46.1457 23.0594 46.0966 23.0594 46.0475 23.0625ZM16.9383 26.1417H38.4995V29.2242H16.9383V26.1417ZM47.9089 29.2181C47.8527 29.2171 47.7965 29.2191 47.7406 29.2229H46.1949C46.1457 29.2198 46.0966 29.2198 46.0475 29.2229C44.1587 29.4581 44.2923 32.2374 46.1949 32.2901H47.7405C49.8552 32.4767 50.0313 29.2634 47.9089 29.2181ZM54.8314 29.2181C54.7752 29.2171 54.719 29.2191 54.663 29.2229H53.1264C53.0743 29.2198 53.0221 29.2198 52.97 29.2229C51.0777 29.4605 51.2198 32.2466 53.1264 32.2901H54.663C56.7777 32.4767 56.9538 29.2634 54.8314 29.2181ZM61.7659 29.2181C61.7089 29.2169 61.6515 29.219 61.5945 29.2229H60.0488C59.9999 29.2198 59.9506 29.2198 59.9014 29.2229C58.0126 29.4581 58.1462 32.2374 60.0488 32.2901H61.5945C63.7057 32.4753 63.8846 29.2689 61.7659 29.2181ZM13.8589 32.2914H38.4995V41.5325C34.9036 41.5325 31.3076 41.5324 27.7129 41.5325C26.0336 41.5325 24.6456 42.9324 24.6456 44.6117V47.691C24.6456 48.811 25.2693 49.7981 26.1792 50.3374V72.3317H13.8589V32.2914ZM18.4839 35.3707C16.429 35.3707 16.429 38.4531 18.4839 38.4531H33.8745C35.9294 38.4531 35.9294 35.3707 33.8745 35.3707H18.4839ZM46.1949 35.3707C44.14 35.3707 44.14 38.4531 46.1949 38.4531H61.5945C63.6494 38.4531 63.6494 35.3707 61.5945 35.3707H46.1949ZM18.4839 41.5325C16.3844 41.4852 16.3844 44.6588 18.4839 44.6117H21.5663C23.6657 44.6589 23.6657 41.4853 21.5663 41.5325H18.4839ZM60.0488 41.5325C57.9493 41.4852 57.9493 44.6588 60.0488 44.6117H61.5945C63.694 44.6589 63.694 41.4853 61.5945 41.5325H60.0488ZM27.7129 44.6117C35.9245 44.6116 44.1419 44.6116 52.3535 44.6117V47.691C44.1419 47.691 35.9245 47.6909 27.7129 47.691V44.6117ZM18.4839 47.691C16.429 47.691 16.429 50.7734 18.4839 50.7734H21.5663C23.6211 50.7734 23.6211 47.691 21.5663 47.691H18.4839ZM60.0488 47.691C57.9939 47.691 57.9939 50.7734 60.0488 50.7734H61.5945C63.6494 50.7734 63.6494 47.691 61.5945 47.691H60.0488ZM29.2586 50.7734C36.4405 50.7733 43.6258 50.7734 50.8078 50.7734V72.3317H46.1949V67.7066C46.1949 66.0273 44.7949 64.6274 43.1155 64.6274H36.9539C35.2745 64.6274 33.8745 66.0273 33.8745 67.7066V72.3317H29.2586V50.7734ZM37.1253 52.313C36.013 52.3225 34.8391 52.3178 33.7272 52.3178C31.8384 52.5531 31.972 55.3324 33.8745 55.385H36.9539C39.0652 55.5702 39.244 52.3638 37.1253 52.313ZM46.3632 52.313C45.2519 52.3225 44.0791 52.3178 42.9682 52.3178C41.0794 52.5531 41.2129 55.3324 43.1155 55.385H46.1949C48.3095 55.5717 48.4856 52.3584 46.3632 52.313ZM18.3276 53.8527C16.3266 54.0034 16.478 56.9849 18.4839 56.9321H21.5663C23.6657 56.9793 23.6657 53.8056 21.5663 53.8527H18.4839C18.4319 53.8497 18.3797 53.8497 18.3276 53.8527ZM59.9015 53.8527C57.8968 53.994 58.0398 56.9825 60.0488 56.9321H61.5945C63.694 56.9793 63.694 53.8056 61.5945 53.8527H60.0488C59.9999 53.8497 59.9506 53.8497 59.9015 53.8527ZM33.8745 58.4657C31.8197 58.4657 31.8197 61.5481 33.8745 61.5481H36.9539C39.0088 61.5481 39.0088 58.4657 36.9539 58.4657H33.8745ZM43.1155 58.4657C41.0606 58.4657 41.0606 61.5481 43.1155 61.5481H46.1949C48.2497 61.5481 48.2497 58.4657 46.1949 58.4657H43.1155ZM18.3276 60.0114C16.2727 60.1153 16.429 63.198 18.4839 63.0936H21.5663C23.6211 63.0936 23.6211 60.0114 21.5663 60.0114H18.4839C18.4319 60.0083 18.3797 60.0083 18.3276 60.0114ZM53.8902 63.0936H58.5152V72.3317H53.8902V63.0936ZM18.3276 66.173C16.3249 66.3218 16.4765 69.3068 18.4839 69.2523H21.5663C23.6639 69.2996 23.6639 66.1277 21.5663 66.173H18.4839C18.4319 66.1699 18.3797 66.1699 18.3276 66.173ZM36.9539 67.7066H43.1155V72.3317H36.9539V67.7066Z" fill="#CEB364"/>
</svg>
