<svg width="80" height="80" viewBox="0 0 80 80" fill="none" xmlns="http://www.w3.org/2000/svg">
<path d="M77.4193 77.4193V58.0645C77.4193 57.7223 77.2834 57.3941 77.0414 57.1521C76.7994 56.9101 76.4712 56.7742 76.129 56.7742H74.8387V6.45161C74.8387 6.1094 74.7028 5.7812 74.4608 5.53922C74.2188 5.29723 73.8906 5.16129 73.5484 5.16129H69.6774V1.29032C69.6774 0.948108 69.5415 0.619909 69.2995 0.377927C69.0575 0.135944 68.7293 0 68.3871 0H52.9032C52.561 0 52.2328 0.135944 51.9908 0.377927C51.7488 0.619909 51.6129 0.948108 51.6129 1.29032V5.16129H47.7419C47.3997 5.16129 47.0715 5.29723 46.8295 5.53922C46.5876 5.7812 46.4516 6.1094 46.4516 6.45161V28.3871H37.4194C37.0771 28.3871 36.7489 28.523 36.507 28.765C36.265 29.007 36.129 29.3352 36.129 29.6774V52.9032H33.5484V28.3871C33.5484 28.0449 33.4124 27.7167 33.1705 27.4747C32.9285 27.2327 32.6003 27.0968 32.2581 27.0968H28.3097C28.0211 24.8239 26.9845 22.7116 25.3632 21.0926C23.742 19.4737 21.6282 18.4402 19.3548 18.1548V12.9032H16.7742V18.1548C14.5009 18.4402 12.3871 19.4737 10.7658 21.0926C9.14455 22.7116 8.10796 24.8239 7.81935 27.0968H3.87097C3.52875 27.0968 3.20055 27.2327 2.95857 27.4747C2.71659 27.7167 2.58065 28.0449 2.58065 28.3871V77.4193H0V80H80V77.4193H77.4193ZM56.7742 12.9032V28.3871H54.1935V12.9032H56.7742ZM59.3548 29.6774V12.9032H61.9355V56.7742H59.3548V29.6774ZM64.5161 56.7742V12.9032H67.0968V56.7742H64.5161ZM74.8387 59.3548V77.4193H52.9032V59.3548H74.8387ZM69.6774 56.7742V12.9032H72.2581V56.7742H69.6774ZM52.9032 7.74194C53.2454 7.74194 53.5736 7.60599 53.8156 7.36401C54.0576 7.12203 54.1935 6.79383 54.1935 6.45161V2.58065H67.0968V6.45161C67.0968 6.79383 67.2327 7.12203 67.4747 7.36401C67.7167 7.60599 68.0449 7.74194 68.3871 7.74194H72.2581V10.3226H49.0323V7.74194H52.9032ZM49.0323 12.9032H51.6129V28.3871H49.0323V12.9032ZM38.7097 30.9677H56.7742V56.7742H51.6129C51.2707 56.7742 50.9425 56.9101 50.7005 57.1521C50.4585 57.3941 50.3226 57.7223 50.3226 58.0645V77.4193H45.1613V54.1935C45.1613 53.8513 45.0253 53.5231 44.7834 53.2812C44.5414 53.0392 44.2132 52.9032 43.871 52.9032H38.7097V30.9677ZM42.5806 77.4193H21.9355V55.4839H42.5806V77.4193ZM18.0645 20.6452C20.1178 20.6452 22.087 21.4608 23.5389 22.9127C24.9908 24.3646 25.8064 26.3338 25.8064 28.3871C25.8064 28.7293 25.9424 29.0575 26.1844 29.2995C26.4264 29.5415 26.7546 29.6774 27.0968 29.6774H30.9677V45.1613H29.0323C28.5189 45.1613 28.0266 44.9574 27.6637 44.5944C27.3007 44.2314 27.0968 43.7391 27.0968 43.2258C27.0968 42.0281 26.621 40.8794 25.774 40.0324C24.9271 39.1855 23.7784 38.7097 22.5806 38.7097H18.7097C18.1964 38.7097 17.7041 38.5058 17.3411 38.1428C16.9781 37.7798 16.7742 37.2875 16.7742 36.7742C16.7742 35.5764 16.2984 34.4277 15.4514 33.5808C14.6045 32.7339 13.4558 32.2581 12.2581 32.2581C11.7447 32.2581 11.2524 32.0541 10.8895 31.6912C10.5265 31.3282 10.3226 30.8359 10.3226 30.3226V28.3871C10.3226 26.3338 11.1382 24.3646 12.5901 22.9127C14.042 21.4608 16.0112 20.6452 18.0645 20.6452ZM5.16129 29.6774H7.74194V30.3226C7.74194 31.5203 8.21774 32.669 9.06468 33.516C9.91162 34.3629 11.0603 34.8387 12.2581 34.8387C12.7714 34.8387 13.2637 35.0426 13.6267 35.4056C13.9896 35.7686 14.1935 36.2609 14.1935 36.7742C14.1935 37.9719 14.6694 39.1206 15.5163 39.9676C16.3632 40.8145 17.5119 41.2903 18.7097 41.2903H22.5806C22.9795 41.2933 23.3679 41.4186 23.6932 41.6494C24.0186 41.8801 24.2653 42.2052 24.4 42.5806H20.6452C20.3029 42.5806 19.9747 42.7166 19.7328 42.9586C19.4908 43.2006 19.3548 43.5288 19.3548 43.871V49.0323C19.3548 49.3745 19.4908 49.7027 19.7328 49.9447C19.9747 50.1866 20.3029 50.3226 20.6452 50.3226H25.8064C26.1487 50.3226 26.4769 50.1866 26.7188 49.9447C26.9608 49.7027 27.0968 49.3745 27.0968 49.0323V47.2903C27.6997 47.5848 28.3613 47.7392 29.0323 47.7419H30.9677V52.9032H20.6452C20.3029 52.9032 19.9747 53.0392 19.7328 53.2812C19.4908 53.5231 19.3548 53.8513 19.3548 54.1935V77.4193H5.16129V29.6774ZM24.5161 45.1613V47.7419H21.9355V45.1613H24.5161Z" fill="#CEB364"/>
<path d="M15.4843 42.5808H10.323C9.98082 42.5808 9.65262 42.7168 9.41064 42.9587C9.16866 43.2007 9.03271 43.5289 9.03271 43.8711V49.0324C9.03271 49.3746 9.16866 49.7028 9.41064 49.9448C9.65262 50.1868 9.98082 50.3227 10.323 50.3227H15.4843C15.8265 50.3227 16.1547 50.1868 16.3967 49.9448C16.6387 49.7028 16.7747 49.3746 16.7747 49.0324V43.8711C16.7747 43.5289 16.6387 43.2007 16.3967 42.9587C16.1547 42.7168 15.8265 42.5808 15.4843 42.5808ZM14.194 47.7421H11.6134V45.1615H14.194V47.7421Z" fill="#CEB364"/>
<path d="M15.4843 52.9033H10.323C9.98082 52.9033 9.65262 53.0393 9.41064 53.2812C9.16866 53.5232 9.03271 53.8514 9.03271 54.1936V59.3549C9.03271 59.6971 9.16866 60.0253 9.41064 60.2673C9.65262 60.5093 9.98082 60.6453 10.323 60.6453H15.4843C15.8265 60.6453 16.1547 60.5093 16.3967 60.2673C16.6387 60.0253 16.7747 59.6971 16.7747 59.3549V54.1936C16.7747 53.8514 16.6387 53.5232 16.3967 53.2812C16.1547 53.0393 15.8265 52.9033 15.4843 52.9033ZM14.194 58.0646H11.6134V55.484H14.194V58.0646Z" fill="#CEB364"/>
<path d="M15.4843 63.2258H10.323C9.98082 63.2258 9.65262 63.3618 9.41064 63.6038C9.16866 63.8457 9.03271 64.1739 9.03271 64.5162V69.6774C9.03271 70.0197 9.16866 70.3479 9.41064 70.5898C9.65262 70.8318 9.98082 70.9678 10.323 70.9678H15.4843C15.8265 70.9678 16.1547 70.8318 16.3967 70.5898C16.6387 70.3479 16.7747 70.0197 16.7747 69.6774V64.5162C16.7747 64.1739 16.6387 63.8457 16.3967 63.6038C16.1547 63.3618 15.8265 63.2258 15.4843 63.2258ZM14.194 68.3871H11.6134V65.8065H14.194V68.3871Z" fill="#CEB364"/>
<path d="M28.3868 58.0645H25.8062V63.2257H28.3868V58.0645Z" fill="#CEB364"/>
<path d="M33.5479 58.0645H30.9673V63.2257H33.5479V58.0645Z" fill="#CEB364"/>
<path d="M38.7096 58.0645H36.1289V63.2257H38.7096V58.0645Z" fill="#CEB364"/>
<path d="M28.3868 65.8064H25.8062V70.9677H28.3868V65.8064Z" fill="#CEB364"/>
<path d="M33.5479 65.8064H30.9673V70.9677H33.5479V65.8064Z" fill="#CEB364"/>
<path d="M38.7096 65.8064H36.1289V70.9677H38.7096V65.8064Z" fill="#CEB364"/>
<path d="M72.2586 61.9355H55.4844V64.5162H72.2586V61.9355Z" fill="#CEB364"/>
<path d="M72.2586 67.0967H55.4844V69.6773H72.2586V67.0967Z" fill="#CEB364"/>
<path d="M72.2586 72.2581H55.4844V74.8387H72.2586V72.2581Z" fill="#CEB364"/>
<path d="M54.1938 33.5486H41.2905V36.1292H54.1938V33.5486Z" fill="#CEB364"/>
<path d="M54.1938 38.7097H41.2905V41.2904H54.1938V38.7097Z" fill="#CEB364"/>
<path d="M54.1938 43.8711H41.2905V46.4517H54.1938V43.8711Z" fill="#CEB364"/>
<path d="M54.1938 49.0322H41.2905V51.6129H54.1938V49.0322Z" fill="#CEB364"/>
<path d="M33.5482 21.9355C34.3138 21.9355 35.0622 21.7085 35.6988 21.2832C36.3354 20.8578 36.8315 20.2533 37.1245 19.5459C37.4175 18.8386 37.4942 18.0603 37.3448 17.3094C37.1954 16.5585 36.8268 15.8687 36.2854 15.3274C35.744 14.786 35.0543 14.4173 34.3034 14.268C33.5525 14.1186 32.7742 14.1953 32.0669 14.4883C31.3595 14.7812 30.755 15.2774 30.3296 15.914C29.9043 16.5506 29.6772 17.299 29.6772 18.0646C29.6772 19.0912 30.0851 20.0758 30.811 20.8018C31.537 21.5277 32.5216 21.9355 33.5482 21.9355ZM33.5482 16.7743C33.8034 16.7743 34.0529 16.8499 34.2651 16.9917C34.4773 17.1335 34.6427 17.335 34.7403 17.5708C34.838 17.8066 34.8635 18.066 34.8137 18.3163C34.764 18.5666 34.6411 18.7965 34.4606 18.977C34.2802 19.1574 34.0502 19.2803 33.7999 19.3301C33.5496 19.3799 33.2902 19.3543 33.0544 19.2567C32.8187 19.159 32.6171 18.9936 32.4753 18.7814C32.3336 18.5692 32.2579 18.3198 32.2579 18.0646C32.2579 17.7224 32.3938 17.3942 32.6358 17.1522C32.8778 16.9102 33.206 16.7743 33.5482 16.7743Z" fill="#CEB364"/>
<path d="M7.74206 11.613C8.50767 11.613 9.25608 11.386 9.89266 10.9607C10.5292 10.5353 11.0254 9.93075 11.3184 9.22342C11.6114 8.51609 11.688 7.73777 11.5387 6.98688C11.3893 6.23598 11.0206 5.54624 10.4792 5.00488C9.93789 4.46351 9.24814 4.09484 8.49725 3.94548C7.74636 3.79611 6.96803 3.87277 6.26071 4.16576C5.55338 4.45874 4.94882 4.95489 4.52347 5.59147C4.09812 6.22805 3.87109 6.97646 3.87109 7.74206C3.87109 8.76871 4.27893 9.7533 5.00487 10.4793C5.73082 11.2052 6.71542 11.613 7.74206 11.613ZM7.74206 6.45174C7.99726 6.45174 8.24673 6.52742 8.45893 6.6692C8.67112 6.81098 8.8365 7.0125 8.93416 7.24828C9.03183 7.48405 9.05738 7.74349 9.00759 7.99379C8.9578 8.24409 8.83491 8.474 8.65446 8.65446C8.474 8.83491 8.24409 8.95781 7.99379 9.00759C7.74349 9.05738 7.48405 9.03183 7.24828 8.93417C7.0125 8.8365 6.81098 8.67112 6.6692 8.45893C6.52742 8.24674 6.45174 7.99726 6.45174 7.74206C6.45174 7.39985 6.58768 7.07165 6.82967 6.82967C7.07165 6.58769 7.39985 6.45174 7.74206 6.45174Z" fill="#CEB364"/>
</svg>
