<svg width="80" height="80" viewBox="0 0 80 80" fill="none" xmlns="http://www.w3.org/2000/svg">
<path d="M24.375 21.7649H18.125C17.262 21.7649 16.5625 22.4644 16.5625 23.3274V29.5771C16.5625 30.4399 17.262 31.1396 18.125 31.1396H24.375C25.238 31.1396 25.9375 30.4399 25.9375 29.5771V23.3274C25.9375 22.4644 25.238 21.7649 24.375 21.7649ZM22.8125 28.0146H19.6875V24.8899H22.8125V28.0146Z" fill="#CEB364"/>
<path d="M24.375 37.3892H18.125C17.262 37.3892 16.5625 38.0888 16.5625 38.9517V45.2021C16.5625 46.0649 17.262 46.7646 18.125 46.7646H24.375C25.238 46.7646 25.9375 46.0649 25.9375 45.2021V38.9517C25.9375 38.0888 25.238 37.3892 24.375 37.3892ZM22.8125 43.6396H19.6875V40.5142H22.8125V43.6396Z" fill="#CEB364"/>
<path d="M24.375 53.0134H18.125C17.262 53.0134 16.5625 53.7131 16.5625 54.5759V60.8262C16.5625 61.689 17.262 62.3887 18.125 62.3887H24.375C25.238 62.3887 25.9375 61.689 25.9375 60.8262V54.5759C25.9375 53.7131 25.238 53.0134 24.375 53.0134ZM22.8125 59.2637H19.6875V56.1384H22.8125V59.2637Z" fill="#CEB364"/>
<path d="M43.1245 21.7648H41.5626V15.4639C41.5626 14.6011 40.863 13.9014 40.0001 13.9014C39.137 13.9014 38.4376 14.6011 38.4376 15.4639V21.7648H36.8745C36.0115 21.7648 35.312 22.4643 35.312 23.3273V29.577C35.312 30.4398 36.0117 31.1395 36.8745 31.1395H43.1245C43.9875 31.1395 44.687 30.4398 44.687 29.577V23.3273C44.687 22.4643 43.9875 21.7648 43.1245 21.7648ZM41.562 28.0145H38.437V24.8898H41.562V28.0145Z" fill="#CEB364"/>
<path d="M43.1245 37.3892H36.8745C36.0115 37.3892 35.312 38.0888 35.312 38.9517V45.2021C35.312 46.0649 36.0117 46.7646 36.8745 46.7646H43.1245C43.9875 46.7646 44.687 46.0649 44.687 45.2021V38.9517C44.687 38.0888 43.9875 37.3892 43.1245 37.3892ZM41.562 43.6396H38.437V40.5142H41.562V43.6396Z" fill="#CEB364"/>
<path d="M55.624 21.7649C54.7612 21.7649 54.0615 22.4644 54.0615 23.3274V29.5771C54.0615 30.4399 54.7612 31.1396 55.624 31.1396H61.8742C62.737 31.1396 63.4367 30.4399 63.4367 29.5771V23.3274C63.4367 22.4644 62.737 21.7649 61.8742 21.7649H55.624ZM60.3117 28.0146H57.1865V24.8899H60.3117V28.0146Z" fill="#CEB364"/>
<path d="M61.8742 37.3892H55.624C54.7612 37.3892 54.0615 38.0888 54.0615 38.9517V45.2021C54.0615 46.0649 54.7612 46.7646 55.624 46.7646H61.8742C62.737 46.7646 63.4367 46.0649 63.4367 45.2021V38.9517C63.4367 38.0888 62.737 37.3892 61.8742 37.3892ZM60.3117 43.6396H57.1865V40.5142H60.3117V43.6396Z" fill="#CEB364"/>
<path d="M61.8742 53.0134H55.624C54.7612 53.0134 54.0615 53.7131 54.0615 54.5759V60.8262C54.0615 61.689 54.7612 62.3887 55.624 62.3887H61.8742C62.737 62.3887 63.4367 61.689 63.4367 60.8262V54.5759C63.4367 53.7131 62.737 53.0134 61.8742 53.0134ZM60.3117 59.2637H57.1865V56.1384H60.3117V59.2637Z" fill="#CEB364"/>
<path d="M21.2501 70.626H21.2134C20.3504 70.626 19.6509 71.3257 19.6509 72.1885C19.6509 73.0513 20.3504 73.751 21.2134 73.751H21.2501C22.1131 73.751 22.8126 73.0513 22.8126 72.1885C22.8126 71.3255 22.1131 70.626 21.2501 70.626Z" fill="#CEB364"/>
<path d="M58.7864 70.6252H58.7495C57.8867 70.6252 57.187 71.3249 57.187 72.1877C57.187 73.0507 57.8867 73.7502 58.7495 73.7502H58.7864C59.6494 73.7502 60.3489 73.0507 60.3489 72.1877C60.3489 71.3248 59.6495 70.6252 58.7864 70.6252Z" fill="#CEB364"/>
<path d="M40.0005 12.5371C40.8633 12.5371 41.563 11.8374 41.563 10.9746V10.9377C41.563 10.0749 40.8633 9.37524 40.0005 9.37524C39.1374 9.37524 38.438 10.0749 38.438 10.9377V10.9746C38.438 11.8376 39.1375 12.5371 40.0005 12.5371Z" fill="#CEB364"/>
<path d="M5.66188 76.875H5.625C4.76219 76.875 4.0625 77.5747 4.0625 78.4375C4.0625 79.3003 4.76203 80 5.625 80H5.66188C6.52484 80 7.22438 79.3003 7.22438 78.4375C7.22438 77.5747 6.525 76.875 5.66188 76.875Z" fill="#CEB364"/>
<path d="M74.3751 76.875H74.3379C73.4751 76.875 72.7754 77.5747 72.7754 78.4375C72.7754 79.3003 73.4751 80 74.3379 80H74.3751C75.238 80 75.9376 79.3003 75.9376 78.4375C75.9376 77.5747 75.238 76.875 74.3751 76.875Z" fill="#CEB364"/>
<path d="M69.849 76.875H69.6876V17.1875C69.6876 16.3247 68.9881 15.625 68.1251 15.625C65.5403 15.625 63.4376 13.5223 63.4376 10.9378C63.4376 10.075 62.7379 9.37531 61.8751 9.37531H50.8262C50.0657 4.08172 45.5006 0 40.0004 0C34.5 0 29.9346 4.08172 29.1742 9.37531H18.1251C17.2621 9.37531 16.5626 10.075 16.5626 10.9378C16.5626 13.5223 14.4598 15.625 11.8753 15.625C11.0125 15.625 10.3128 16.3247 10.3128 17.1875V76.875H10.1514C9.2884 76.875 8.58887 77.5747 8.58887 78.4375C8.58887 79.3003 9.28856 80 10.1514 80H11.8753H30.6251H49.3753H68.1251H69.849C70.712 80 71.4115 79.3003 71.4115 78.4375C71.4115 77.5747 70.7122 76.875 69.849 76.875ZM47.8128 76.875H32.1876V75.3123H47.8128V76.875ZM36.8748 62.6005H35.3129V56.1384H44.6876V72.1873H35.3129V65.7255H36.8748C37.7378 65.7255 38.4373 65.0258 38.4373 64.163C38.4373 63.3 37.7378 62.6005 36.8748 62.6005ZM66.5626 70.6253H63.2757C62.4129 70.6253 61.7132 71.325 61.7132 72.1878C61.7132 73.0508 62.4129 73.7503 63.2757 73.7503H66.5626V76.875H50.9378V73.7498C50.9378 72.887 50.2381 72.1873 49.3753 72.1873H47.8126V54.5759C47.8126 53.7131 47.1131 53.0134 46.2501 53.0134H33.7504C32.8875 53.0134 32.1879 53.7131 32.1879 54.5759V72.1873H30.6251C29.7621 72.1873 29.0626 72.887 29.0626 73.7498V76.875H13.4378V73.7503H16.7243C17.5873 73.7503 18.2868 73.0508 18.2868 72.1878C18.2868 71.325 17.5873 70.6253 16.7243 70.6253H13.4378V18.593C16.4942 17.9702 18.9076 15.5566 19.5306 12.5003H30.6254C31.4884 12.5003 32.1879 11.8006 32.1879 10.9378C32.1879 6.62984 35.6926 3.125 40.0004 3.125C44.3079 3.125 47.8125 6.62984 47.8125 10.9378C47.8125 11.8006 48.5121 12.5003 49.375 12.5003H60.4695C61.0925 15.5567 63.5062 17.9702 66.5626 18.593V70.6253Z" fill="#CEB364"/>
</svg>
