<svg width="80" height="80" viewBox="0 0 80 80" fill="none" xmlns="http://www.w3.org/2000/svg">
<g clip-path="url(#clip0_103_2855)">
<path d="M78.4372 42.4995H66.5622V37.0309C66.5622 36.1681 65.8627 35.4684 64.9997 35.4684H60.3122V29.9998C60.3122 29.1369 59.6127 28.4373 58.7497 28.4373H55.6247V26.562C55.6244 18.4742 49.4464 11.8025 41.5622 11.0159V9.37547H52.4994C53.3623 9.37547 54.0619 8.67578 54.0619 7.81297V1.5625C54.0619 0.699688 53.3623 0 52.4994 0H39.9997C39.1367 0 38.4372 0.699688 38.4372 1.5625V7.81297V11.0158C30.5527 11.8022 24.375 18.4741 24.3747 26.562V28.4373H21.2497C20.387 28.4373 19.6872 29.1369 19.6872 29.9998V35.4684H14.9997C14.137 35.4684 13.4372 36.1681 13.4372 37.0309V42.4995H1.5625C0.699375 42.4995 0 43.1992 0 44.062V78.4375C0 79.3003 0.699531 80 1.5625 80H78.4372C79.3 80 79.9997 79.3003 79.9997 78.4375V44.062C79.9997 43.1992 79.3 42.4995 78.4372 42.4995ZM41.5622 3.125H50.9369V6.25047H41.5622V3.125ZM27.4997 26.562C27.5 19.6702 33.1073 14.063 39.9997 14.063C46.8917 14.063 52.4994 19.6702 52.4997 26.562V28.4373H27.4997V26.562ZM22.8122 31.5623H57.1872V35.4684H52.4987H22.8122V31.5623ZM32.1866 65.3325L30.1306 66.0178C29.4925 66.2305 29.0622 66.8277 29.0622 67.5002V76.875H22.8122V57.6891L32.1866 54.5644V65.3325ZM38.4372 76.875H32.1872V68.6264L34.2127 67.9512C34.2139 67.9509 34.2152 67.9505 34.2162 67.9502L38.4372 66.5431V76.875ZM40.4819 62.8894C40.4617 62.883 40.4416 62.8777 40.4214 62.872C40.3955 62.8648 40.3695 62.858 40.3436 62.852C40.3237 62.8477 40.3036 62.8434 40.2834 62.8398C40.2539 62.8344 40.2242 62.83 40.1947 62.8263C40.1777 62.8241 40.1605 62.8217 40.1434 62.8202C40.0477 62.8113 39.9514 62.8113 39.8559 62.8202C39.8386 62.8217 39.8217 62.8241 39.8044 62.8263C39.7748 62.83 39.7452 62.8344 39.7159 62.8398C39.6958 62.8434 39.6756 62.8477 39.6558 62.852C39.6295 62.858 39.6036 62.8648 39.578 62.872C39.5578 62.8777 39.5373 62.883 39.5175 62.8894C39.5136 62.8908 39.5095 62.8916 39.5056 62.893L35.3116 64.2908V53.5228L39.9997 51.9602L44.6866 53.5223V64.2905L40.4938 62.893C40.4898 62.8916 40.4858 62.8908 40.4819 62.8894ZM47.8125 76.875H41.5622V66.5431L45.7675 67.9448C45.7758 67.9477 45.7834 67.9505 45.7916 67.953L47.8125 68.6266V76.875ZM50.9375 76.875V67.5002C50.9375 66.8275 50.5069 66.2305 49.8691 66.0178L47.8116 65.332V54.5639L57.1872 57.6891V76.875H50.9375ZM76.8747 76.875H60.3122V56.5628C60.3122 55.8902 59.8819 55.2931 59.2438 55.0805L40.4938 48.8308C40.173 48.7239 39.8264 48.7239 39.5056 48.8308L33.2847 50.9044L33.2844 50.9045L20.7556 55.0806C20.1175 55.2933 19.6872 55.8905 19.6872 56.563V76.875H3.125V45.6245H14.9997C15.8627 45.6245 16.5622 44.9248 16.5622 44.062V38.5934H19.6869V44.062C19.6869 44.9248 20.3867 45.6245 21.2494 45.6245C22.1123 45.6245 22.8119 44.9248 22.8119 44.062V38.5934H25.9369V39.5359C25.9369 40.3988 26.6367 41.0984 27.4994 41.0984C28.3623 41.0984 29.0619 40.3988 29.0619 39.5359V38.5934H32.1866V44.062C32.1866 44.9248 32.8864 45.6245 33.7491 45.6245C34.612 45.6245 35.3116 44.9248 35.3116 44.062V38.5934H38.4369V39.5359C38.4369 40.3988 39.1364 41.0984 39.9994 41.0984C40.862 41.0984 41.5619 40.3988 41.5619 39.5359V38.5934H44.6866V44.062C44.6866 44.9248 45.3861 45.6245 46.2491 45.6245C47.1119 45.6245 47.8116 44.9248 47.8116 44.062V38.5934H50.9366V39.5361C50.9369 40.3989 51.6364 41.0984 52.4991 41.0984H52.4994C53.3623 41.0983 54.0619 40.3986 54.0616 39.5358V38.5934H57.1862V44.062C57.1862 44.9248 57.8861 45.6245 58.7487 45.6245C59.6117 45.6245 60.3112 44.9248 60.3112 44.062V38.5934H63.4372V44.062C63.4372 44.9248 64.137 45.6245 64.9997 45.6245H76.8747V76.875Z" fill="#CEB364"/>
<path d="M14.9995 55.0002C14.1369 55.0002 13.437 55.6998 13.437 56.5627V73.2959C13.437 74.1587 14.1369 74.8584 14.9995 74.8584C15.8625 74.8584 16.562 74.1587 16.562 73.2959V56.5627C16.562 55.6998 15.8625 55.0002 14.9995 55.0002Z" fill="#CEB364"/>
<path d="M63.437 56.5627V73.2959C63.437 74.1587 64.1369 74.8584 64.9995 74.8584C65.8625 74.8584 66.562 74.1587 66.562 73.2959V56.5627C66.562 55.6998 65.8625 55.0002 64.9995 55.0002C64.1369 55.0002 63.437 55.6998 63.437 56.5627Z" fill="#CEB364"/>
<path d="M52.499 42.4626C51.6364 42.4626 50.9365 43.1623 50.9365 44.0251V44.062C50.9365 44.9248 51.6364 45.6245 52.499 45.6245C53.362 45.6245 54.0615 44.9248 54.0615 44.062V44.0251C54.0615 43.1622 53.3621 42.4626 52.499 42.4626Z" fill="#CEB364"/>
<path d="M27.499 42.4626C26.6364 42.4626 25.9365 43.1623 25.9365 44.0251V44.062C25.9365 44.9248 26.6364 45.6245 27.499 45.6245C28.362 45.6245 29.0615 44.9248 29.0615 44.062V44.0251C29.0615 43.1622 28.362 42.4626 27.499 42.4626Z" fill="#CEB364"/>
<path d="M39.999 42.4626C39.1361 42.4626 38.4365 43.1623 38.4365 44.0251V44.062C38.4365 44.9248 39.1361 45.6245 39.999 45.6245C40.8617 45.6245 41.5615 44.9248 41.5615 44.062V44.0251C41.5615 43.1622 40.8618 42.4626 39.999 42.4626Z" fill="#CEB364"/>
<path d="M8.28076 55.0002C7.41779 55.0002 6.71826 55.6998 6.71826 56.5627L6.71857 68.7698C6.71857 69.6327 7.41842 70.3323 8.28107 70.3323C9.14404 70.3323 9.84357 69.6326 9.84357 68.7698L9.84326 56.5627C9.84326 55.6998 9.14373 55.0002 8.28076 55.0002Z" fill="#CEB364"/>
<path d="M8.28076 71.6965C7.41811 71.6965 6.71826 72.3962 6.71826 73.259V73.2957C6.71826 74.1586 7.41811 74.8582 8.28076 74.8582C9.14373 74.8582 9.84326 74.1586 9.84326 73.2957V73.259C9.84326 72.3962 9.14389 71.6965 8.28076 71.6965Z" fill="#CEB364"/>
<path d="M71.7186 70.3323C72.5815 70.3323 73.2811 69.6326 73.2811 68.7698L73.2808 56.5627C73.2808 55.6998 72.5812 55.0002 71.7183 55.0002C70.8553 55.0002 70.1558 55.6998 70.1558 56.5627L70.1561 68.7698C70.1561 69.6327 70.8559 70.3323 71.7186 70.3323Z" fill="#CEB364"/>
<path d="M71.7183 74.8585C72.5812 74.8585 73.2808 74.1588 73.2808 73.296V73.2593C73.2808 72.3965 72.5812 71.6968 71.7183 71.6968C70.8556 71.6968 70.1558 72.3965 70.1558 73.2593V73.296C70.1558 74.1588 70.8556 74.8585 71.7183 74.8585Z" fill="#CEB364"/>
</g>
<defs>
<clipPath id="clip0_103_2855">
<rect width="80" height="80" fill="white"/>
</clipPath>
</defs>
</svg>
