<svg width="80" height="80" viewBox="0 0 80 80" fill="none" xmlns="http://www.w3.org/2000/svg">
<path d="M43.9253 32.0315H36.0746C35.2075 32.0315 34.5044 32.7345 34.5044 33.6016V42.5516C34.5044 43.4188 35.2075 44.1218 36.0746 44.1218H43.9253C44.7924 44.1218 45.4955 43.4188 45.4955 42.5516V33.6016C45.4955 32.7345 44.7924 32.0315 43.9253 32.0315ZM42.3552 40.9815H37.6447V35.1718H42.3552V40.9815Z" fill="#CEB364"/>
<path d="M70.6704 76.8597H64.3374V53.7877H66.4571C67.2027 53.7877 67.8457 53.2633 67.9954 52.5327C68.1451 51.802 67.7602 51.067 67.0744 50.7738L51.776 44.2317V28.8913H52.9537C53.5747 28.8913 54.1376 28.5252 54.3893 27.9573C54.641 27.3895 54.5343 26.7267 54.1171 26.2664L41.5701 12.4266V7.77234H44.3963C45.2633 7.77234 45.9665 7.06938 45.9665 6.20219C45.9665 5.335 45.2633 4.63203 44.3963 4.63203H41.5701V1.57016C41.5701 0.702969 40.8669 0 39.9999 0C39.1329 0 38.4297 0.702969 38.4297 1.57016V4.63203H35.6035C34.7365 4.63203 34.0333 5.335 34.0333 6.20219C34.0333 7.06938 34.7365 7.77234 35.6035 7.77234H38.4297V12.4266L25.8829 26.2661C25.4657 26.7262 25.359 27.3891 25.6105 27.957C25.8622 28.525 26.4249 28.8909 27.0462 28.8909H28.2238V44.2316L12.9254 50.7736C12.2397 51.0669 11.8547 51.8019 12.0044 52.5325C12.1541 53.2631 12.7971 53.7875 13.5427 53.7875H15.6624V76.8594H9.32943C8.4624 76.8594 7.75928 77.5623 7.75928 78.4295C7.75928 79.2967 8.46225 80 9.32943 80H70.6705C71.5376 80 72.2407 79.297 72.2407 78.4298C72.2407 77.5627 71.5376 76.8597 70.6704 76.8597ZM39.9999 15.3702L49.411 25.7506H30.5888L39.9999 15.3702ZM45.1029 76.8597H34.8968V61.5506C34.8968 58.7369 37.186 56.4477 39.9997 56.4477C42.8137 56.4477 45.1027 58.737 45.1027 61.5506V76.8597H45.1029ZM61.1971 76.8597H48.2432V61.5506C48.2432 57.0052 44.5451 53.3072 39.9997 53.3072C35.4544 53.3072 31.7563 57.0052 31.7563 61.5506V76.8597H18.8024V51.6759L30.411 46.7117C30.989 46.4645 31.3638 45.8967 31.3638 45.2681V28.8911H48.6357V45.268C48.6357 45.8966 49.0107 46.4645 49.5885 46.7116L61.1971 51.6758V76.8597Z" fill="#CEB364"/>
<path d="M54.5238 65.6853C55.3908 65.6853 56.0939 64.9824 56.0939 64.1152V59.0907C56.0939 58.2236 55.3908 57.5205 54.5238 57.5205C53.6567 57.5205 52.9536 58.2235 52.9536 59.0907V64.1152C52.9536 64.9824 53.6567 65.6853 54.5238 65.6853Z" fill="#CEB364"/>
<path d="M54.5238 73.0651C55.3908 73.0651 56.0939 72.3621 56.0939 71.4949V70.8668C56.0939 69.9998 55.3908 69.2966 54.5238 69.2966C53.6567 69.2966 52.9536 69.9996 52.9536 70.8668V71.4949C52.9536 72.3621 53.6567 73.0651 54.5238 73.0651Z" fill="#CEB364"/>
<path d="M25.4759 57.5203C24.6089 57.5203 23.9058 58.2232 23.9058 59.0904V64.115C23.9058 64.9821 24.6089 65.6851 25.4759 65.6851C26.343 65.6851 27.0461 64.9821 27.0461 64.115V59.0906C27.0461 58.2234 26.343 57.5203 25.4759 57.5203Z" fill="#CEB364"/>
</svg>
