<svg width="80" height="80" viewBox="0 0 80 80" fill="none" xmlns="http://www.w3.org/2000/svg">
<path d="M78.6798 70.3047H71.9022V22.9232C71.9022 22.1941 71.3112 21.603 70.582 21.603H68.9984V13.6819C68.9984 12.9529 68.4075 12.3618 67.6783 12.3618H65.6981V9.19349C65.6981 8.46442 65.1072 7.87333 64.378 7.87333H63.19V6.02505C63.19 5.29599 62.5991 4.70489 61.8698 4.70489C61.1406 4.70489 60.5497 5.29599 60.5497 6.02505V7.87317H59.3617C58.6325 7.87317 58.0416 8.46427 58.0416 9.19333V12.3616H56.0614C55.3322 12.3616 54.7412 12.9527 54.7412 13.6818V21.603H53.1575C52.4283 21.603 51.8373 22.1941 51.8373 22.9232V57.4541H42.772V29.6715C42.772 28.9424 42.1811 28.3513 41.4519 28.3513H33.6188V22.2991C38.6719 21.7141 42.6084 17.4111 42.6084 12.2038C42.6084 6.59849 38.0483 2.03833 32.443 2.03833C27.8916 2.03833 23.9562 5.0388 22.6948 9.31395H18.5703C17.8412 9.31395 17.2502 9.90505 17.2502 10.6341V33.2685H9.41828C8.68922 33.2685 8.09812 33.8596 8.09812 34.5886V70.3047H1.32016C0.591094 70.3047 0 70.8958 0 71.6249C0 72.354 0.591094 72.945 1.32016 72.945H78.6798C79.4091 72.945 80 72.354 80 71.6249C80 70.8958 79.4091 70.3047 78.6798 70.3047ZM17.2495 70.3047H10.7383V66.49H14.1514C14.8805 66.49 15.4716 65.899 15.4716 65.1699C15.4716 64.4408 14.8805 63.8497 14.1514 63.8497H10.7383V61.5261H14.1514C14.8805 61.5261 15.4716 60.935 15.4716 60.206C15.4716 59.4769 14.8805 58.8858 14.1514 58.8858H10.7383V56.5622H14.1514C14.8805 56.5622 15.4716 55.9711 15.4716 55.2421C15.4716 54.513 14.8805 53.9219 14.1514 53.9219H10.7383V51.5983H14.1514C14.8805 51.5983 15.4716 51.0072 15.4716 50.2782C15.4716 49.5491 14.8805 48.958 14.1514 48.958H10.7383V46.6343H14.1514C14.8805 46.6343 15.4716 46.0432 15.4716 45.3141C15.4716 44.585 14.8805 43.994 14.1514 43.994H10.7383V41.6704H14.1514C14.8805 41.6704 15.4716 41.0793 15.4716 40.3502C15.4716 39.6211 14.8805 39.03 14.1514 39.03H10.7383V35.9088H17.2495V70.3047ZM60.6816 10.5138H63.0575V12.3619H60.6816V10.5138ZM57.3812 15.0021H66.3578V21.6025H57.3812V15.0021ZM32.4423 4.67849C36.5916 4.67849 39.9675 8.05411 39.9675 12.2036C39.9675 15.953 37.2109 19.07 33.6183 19.6363V10.6341C33.6183 9.90505 33.0272 9.31395 32.2981 9.31395H25.4898C26.6331 6.55411 29.3453 4.67849 32.4423 4.67849ZM27.7222 12.901C26.9931 12.901 26.402 13.4921 26.402 14.2211V68.0385C26.402 68.0443 26.4028 68.0497 26.403 68.0555V70.3046H19.89V11.9544H30.9778V28.3513H29.0423V14.2211C29.0423 13.4921 28.4513 12.901 27.7222 12.901ZM35.5548 58.7743V70.3047H29.0431V30.9916H40.1309V57.4541H36.875C36.1459 57.4541 35.5548 58.0452 35.5548 58.7743ZM63.4538 70.3047H38.1953V60.0946H63.4536V70.3047H63.4538ZM69.2616 70.3047H66.0939V58.7743C66.0939 58.0452 65.503 57.4541 64.7738 57.4541H54.4773V24.2435H69.2616V70.3047Z" fill="#CEB364"/>
<path d="M78.6798 75.3213H1.32016C0.591094 75.3213 0 75.9124 0 76.6414C0 77.3705 0.591094 77.9616 1.32016 77.9616H78.6798C79.4091 77.9616 80 77.3705 80 76.6414C80 75.9124 79.4089 75.3213 78.6798 75.3213Z" fill="#CEB364"/>
<path d="M23.1458 12.9011C22.4168 12.9011 21.8257 13.4922 21.8257 14.2213V68.0386C21.8257 68.7677 22.4168 69.3588 23.1458 69.3588C23.8749 69.3588 24.466 68.7677 24.466 68.0386V14.2213C24.4662 13.4922 23.8751 12.9011 23.1458 12.9011Z" fill="#CEB364"/>
<path d="M32.2987 31.8833C31.5696 31.8833 30.9785 32.4744 30.9785 33.2035V68.0931C30.9785 68.8222 31.5696 69.4133 32.2987 69.4133C33.0277 69.4133 33.6188 68.8222 33.6188 68.0931V33.2035C33.6188 32.4744 33.0277 31.8833 32.2987 31.8833Z" fill="#CEB364"/>
<path d="M36.8753 31.8833C36.1463 31.8833 35.5552 32.4744 35.5552 33.2035V54.0805C35.5552 54.8095 36.1463 55.4005 36.8753 55.4005C37.6044 55.4005 38.1955 54.8094 38.1955 54.0803V33.2035C38.1955 32.4744 37.6044 31.8833 36.8753 31.8833Z" fill="#CEB364"/>
<path d="M58.9661 26.0042C58.2369 26.0042 57.646 26.5952 57.646 27.3243V54.0802C57.646 54.8093 58.2369 55.4004 58.9661 55.4004C59.6954 55.4004 60.2863 54.8093 60.2863 54.0802V27.3243C60.2863 26.5952 59.6954 26.0042 58.9661 26.0042Z" fill="#CEB364"/>
<path d="M64.7738 26.0037C64.0446 26.0037 63.4536 26.5948 63.4536 27.3238V54.0801C63.4536 54.8091 64.0446 55.4002 64.7738 55.4002C65.503 55.4002 66.0939 54.8093 66.0939 54.0801V27.3238C66.0939 26.5948 65.503 26.0037 64.7738 26.0037Z" fill="#CEB364"/>
<path d="M59.9334 16.1599C59.2042 16.1599 58.6133 16.751 58.6133 17.4801V19.1249C58.6133 19.854 59.2042 20.4451 59.9334 20.4451C60.6627 20.4451 61.2536 19.854 61.2536 19.1249V17.4801C61.2536 16.751 60.6627 16.1599 59.9334 16.1599Z" fill="#CEB364"/>
<path d="M63.806 16.1599C63.0768 16.1599 62.4858 16.751 62.4858 17.4801V19.1249C62.4858 19.854 63.0768 20.4451 63.806 20.4451C64.5352 20.4451 65.1262 19.854 65.1262 19.1249V17.4801C65.1262 16.751 64.5351 16.1599 63.806 16.1599Z" fill="#CEB364"/>
<path d="M60.5057 61.7961H41.1429C40.4137 61.7961 39.8228 62.3872 39.8228 63.1163C39.8228 63.8454 40.4138 64.4365 41.1429 64.4365H60.5057C61.2349 64.4365 61.8259 63.8454 61.8259 63.1163C61.8259 62.3872 61.2351 61.7961 60.5057 61.7961Z" fill="#CEB364"/>
<path d="M60.5057 65.7861H41.1429C40.4137 65.7861 39.8228 66.3772 39.8228 67.1063C39.8228 67.8354 40.4138 68.4264 41.1429 68.4264H60.5057C61.2349 68.4264 61.8259 67.8354 61.8259 67.1063C61.8259 66.3772 61.2351 65.7861 60.5057 65.7861Z" fill="#CEB364"/>
</svg>
