<svg width="80" height="80" viewBox="0 0 80 80" fill="none" xmlns="http://www.w3.org/2000/svg">
<path d="M78.2699 21.3306H75.3713C75.8243 20.0708 76.0395 18.7311 75.9993 17.3589C75.8262 11.4694 70.8907 6.76701 64.9913 6.87545C64.2204 6.88967 63.4635 6.98717 62.7285 7.15779C60.7453 4.86295 57.9065 3.55811 54.8509 3.55811C49.1043 3.55811 44.4292 8.23326 44.4292 13.9798C44.4292 15.4606 44.7499 16.9358 45.3593 18.2808C44.9923 18.9825 44.7407 19.755 44.6313 20.5731C44.5976 20.8258 44.5784 21.0786 44.572 21.3306H43.0548C42.1545 21.3306 41.4243 22.0608 41.4243 22.9611C41.4243 23.8614 42.1545 24.5915 43.0548 24.5915H78.2698C79.1701 24.5915 79.9003 23.8614 79.9003 22.9611C79.9004 22.0608 79.1706 21.3306 78.2699 21.3306ZM54.851 6.8192C56.5721 6.8192 58.1921 7.42389 59.4717 8.51045C58.7573 8.95779 58.0899 9.49092 57.4849 10.1065C56.066 11.5501 55.0996 13.3251 54.6585 15.2536C53.5638 14.71 52.3257 14.4529 51.061 14.5401C49.8999 14.6203 48.8123 14.9897 47.8709 15.5765C47.7523 15.0578 47.6904 14.5248 47.6904 13.98C47.6903 10.0314 50.9026 6.8192 54.851 6.8192ZM71.8029 21.3306H47.8345C47.8395 21.2223 47.8495 21.1139 47.864 21.0053C48.0967 19.265 49.5357 17.9144 51.2857 17.7936C52.6503 17.6987 53.9546 18.3548 54.691 19.5044C55.0979 20.1398 55.8885 20.4129 56.6009 20.1647C57.3137 19.9162 57.7626 19.2108 57.6862 18.46C57.6601 18.202 57.6467 17.9404 57.6467 17.6828C57.6467 13.5969 60.9687 10.2115 65.0518 10.1358C65.0988 10.135 65.1453 10.1345 65.1921 10.1345C69.2479 10.1345 72.6203 13.39 72.7396 17.4548C72.7801 18.8259 72.4579 20.1509 71.8029 21.3306Z" fill="#CEB364"/>
<path d="M11.4677 15.0278C9.50922 15.0278 7.75031 15.893 6.54906 17.2599C5.34781 15.893 3.58891 15.0278 1.63047 15.0278C0.73 15.0278 0 15.758 0 16.6583C0 17.5586 0.73 18.2888 1.63047 18.2888C3.44344 18.2888 4.91859 19.7639 4.91859 21.5769C4.91859 22.4772 5.64875 23.2074 6.54906 23.2074C7.44938 23.2074 8.17953 22.4772 8.17953 21.5769C8.17953 19.7639 9.65469 18.2888 11.4677 18.2888C12.368 18.2888 13.0981 17.5586 13.0981 16.6583C13.0981 15.758 12.3681 15.0278 11.4677 15.0278Z" fill="#CEB364"/>
<path d="M25.954 3.55811C23.9955 3.55811 22.2366 4.42326 21.0354 5.79014C19.8341 4.42326 18.0752 3.55811 16.1168 3.55811C15.2165 3.55811 14.4863 4.28826 14.4863 5.18857C14.4863 6.08889 15.2165 6.81904 16.1168 6.81904C17.9298 6.81904 19.4049 8.2942 19.4049 10.1072C19.4049 11.0075 20.1351 11.7376 21.0354 11.7376C21.9357 11.7376 22.6659 11.0075 22.6659 10.1072C22.6659 8.2942 24.141 6.81904 25.954 6.81904C26.8543 6.81904 27.5845 6.08889 27.5845 5.18857C27.5845 4.28826 26.8543 3.55811 25.954 3.55811Z" fill="#CEB364"/>
<path d="M78.2915 73.1807H78.2701C77.3698 73.1807 76.6396 73.9108 76.6396 74.8111C76.6396 75.7114 77.3698 76.4416 78.2701 76.4416H78.2915C79.1918 76.4416 79.922 75.7114 79.922 74.8111C79.922 73.9108 79.1918 73.1807 78.2915 73.1807Z" fill="#CEB364"/>
<path d="M13.7296 51.9585C12.8293 51.9585 12.0991 52.6887 12.0991 53.589V56.1977C12.0991 57.098 12.8293 57.8282 13.7296 57.8282C14.6299 57.8282 15.3601 57.098 15.3601 56.1977V53.589C15.3601 52.6887 14.6299 51.9585 13.7296 51.9585Z" fill="#CEB364"/>
<path d="M19.4361 51.9585C18.5358 51.9585 17.8057 52.6887 17.8057 53.589V56.1977C17.8057 57.098 18.5358 57.8282 19.4361 57.8282C20.3364 57.8282 21.0666 57.098 21.0666 56.1977V53.589C21.0666 52.6887 20.3368 51.9585 19.4361 51.9585Z" fill="#CEB364"/>
<path d="M13.7296 60.4377C12.8293 60.4377 12.0991 61.1679 12.0991 62.0682V64.677C12.0991 65.5773 12.8293 66.3074 13.7296 66.3074C14.6299 66.3074 15.3601 65.5773 15.3601 64.677V62.0682C15.3601 61.1677 14.6301 60.4377 13.7296 60.4377Z" fill="#CEB364"/>
<path d="M19.4361 60.4377C18.5358 60.4377 17.8057 61.1679 17.8057 62.0682V64.677C17.8057 65.5773 18.5358 66.3074 19.4361 66.3074C20.3364 66.3074 21.0666 65.5773 21.0666 64.677V62.0682C21.0666 61.1677 20.3368 60.4377 19.4361 60.4377Z" fill="#CEB364"/>
<path d="M80 49.1624C80 39.7737 72.3616 32.1352 62.9728 32.1352C59.568 32.1352 56.3939 33.1404 53.7303 34.8688C53.7 34.8672 53.67 34.8643 53.6394 34.8643H38.8058V25.7335C38.8058 24.8332 38.0756 24.103 37.1753 24.103H21.0355C20.1352 24.103 19.405 24.8332 19.405 25.7335V46.2729H8.6475C7.74719 46.2729 7.01703 47.003 7.01703 47.9033V66.811C5.58031 67.4679 4.38781 68.598 3.66281 70.0451C1.53953 70.5994 0 72.5169 0 74.8093C0 75.7096 0.73 76.4398 1.63047 76.4398H18.2573C19.1577 76.4398 19.8878 75.7096 19.8878 74.8093C19.8878 72.6532 18.3872 70.8412 16.3759 70.3622C15.3128 67.9473 12.9636 66.3083 10.2781 66.1819V49.5335H23.1569V74.8115C23.1569 75.7118 23.887 76.4419 24.7873 76.4419C25.6877 76.4419 26.4178 75.7118 26.4178 74.8115V70.3837H32.1811C33.0814 70.3837 33.8116 69.6535 33.8116 68.7532C33.8116 67.8529 33.0814 67.1227 32.1811 67.1227H26.4178V65.1712H32.1811C33.0814 65.1712 33.8116 64.441 33.8116 63.5407C33.8116 62.6404 33.0814 61.9102 32.1811 61.9102H26.4178V59.9587H32.1811C33.0814 59.9587 33.8116 59.2285 33.8116 58.3282C33.8116 57.4279 33.0814 56.6977 32.1811 56.6977H26.4178V54.7463H32.1811C33.0814 54.7463 33.8116 54.0162 33.8116 53.1158C33.8116 52.2155 33.0814 51.4854 32.1811 51.4854H26.4178V49.5338H32.1811C33.0814 49.5338 33.8116 48.8037 33.8116 47.9033C33.8116 47.003 33.0814 46.2729 32.1811 46.2729H24.7875H22.6661V44.3163H32.1813C33.0816 44.3163 33.8117 43.5862 33.8117 42.6858C33.8117 41.7855 33.0816 41.0554 32.1813 41.0554H22.6661V39.1038H32.1813C33.0816 39.1038 33.8117 38.3737 33.8117 37.4733C33.8117 36.573 33.0816 35.8429 32.1813 35.8429H22.6661V33.8863H32.1813C33.0816 33.8863 33.8117 33.1562 33.8117 32.2558C33.8117 31.3555 33.0816 30.6254 32.1813 30.6254H22.6661V27.3643H35.5448V74.8121C35.5448 75.7124 36.275 76.4426 37.1753 76.4426C38.0756 76.4426 38.8058 75.7124 38.8058 74.8121V54.7512H41.4208C42.3211 54.7512 43.0513 54.021 43.0513 53.1207C43.0513 52.2204 42.3211 51.4902 41.4208 51.4902H38.8058V49.5337H41.4208C42.3211 49.5337 43.0513 48.8035 43.0513 47.9032C43.0513 47.0029 42.3211 46.2727 41.4208 46.2727H38.8058V44.3162H41.4208C42.3211 44.3162 43.0513 43.586 43.0513 42.6857C43.0513 41.7854 42.3211 41.0552 41.4208 41.0552H38.8058V38.1254H50.0186C47.4805 41.0999 45.9456 44.9552 45.9456 49.1626C45.9456 50.6205 46.128 52.0513 46.4877 53.4394C42.3 53.9344 39.0405 57.5041 39.0405 61.8227C39.0405 65.921 41.9759 69.3454 45.8542 70.1071V73.1813H43.7291C42.8288 73.1813 42.0986 73.9115 42.0986 74.8118C42.0986 75.7121 42.8288 76.4423 43.7291 76.4423H72.9953C73.8956 76.4423 74.6258 75.7121 74.6258 74.8118C74.6258 73.9115 73.8956 73.1813 72.9953 73.1813H64.5116V66.1196C73.1819 65.3388 80 58.0322 80 49.1624ZM13.5964 72.2729C13.6909 72.6465 13.9098 72.9612 14.2009 73.1788H4.58453C4.67688 73.1599 4.77219 73.1483 4.86984 73.1451C5.55375 73.1222 6.15063 72.6748 6.36453 72.0247C6.87391 70.4752 8.31234 69.4343 9.94375 69.4343C11.6709 69.4341 13.173 70.6015 13.5964 72.2729ZM47.4847 59.193C46.5844 59.193 45.8542 59.9232 45.8542 60.8235V66.741C43.793 66.056 42.3016 64.1107 42.3016 61.8222C42.3016 58.9643 44.6267 56.6391 47.4845 56.6391C50.3425 56.6391 52.6677 58.9643 52.6677 61.8222C52.6677 64.1104 51.1766 66.0557 49.1155 66.7408V60.8235C49.1153 59.9232 48.3852 59.193 47.4847 59.193ZM49.1152 73.1808V70.1066C52.1198 69.5162 54.5566 67.3274 55.5023 64.4652C57.3041 65.3471 59.2448 65.8991 61.2503 66.1005V73.1807H49.1152V73.1808ZM62.8809 44.5655C61.9806 44.5655 61.2505 45.2957 61.2505 46.196V52.9579L58.2 49.9074C57.5633 49.271 56.5312 49.2708 55.8939 49.9074C55.2572 50.5441 55.2572 51.5766 55.8939 52.2135L61.2505 57.5701V62.8197C59.3506 62.5827 57.5297 61.9552 55.8852 60.9648C55.5403 57.5616 53.1659 54.749 49.9948 53.7594C49.473 52.2882 49.2067 50.746 49.2067 49.1626C49.2067 41.5719 55.3822 35.3963 62.973 35.3963C70.5638 35.3963 76.7392 41.5718 76.7392 49.1626C76.7392 56.2327 71.3806 62.0727 64.5119 62.8405V56.8954C64.5119 56.8949 64.5119 56.8943 64.5119 56.8938V54.6066L69.4734 49.6452C70.1102 49.0085 70.1102 47.976 69.4734 47.3391C68.8369 46.7027 67.8048 46.7024 67.1673 47.3391L64.5117 49.9947V46.1962C64.5116 45.2957 63.7816 44.5655 62.8809 44.5655Z" fill="#CEB364"/>
</svg>
