<svg width="80" height="80" viewBox="0 0 80 80" fill="none" xmlns="http://www.w3.org/2000/svg">
<path d="M17.0614 9.22461H11.347C10.4453 9.22461 9.71436 9.95555 9.71436 10.8573V19.8368C9.71436 20.7385 10.4453 21.4695 11.347 21.4695H17.0612C17.9629 21.4695 18.6939 20.7385 18.6939 19.8368V10.8573C18.694 9.95555 17.9631 9.22461 17.0614 9.22461ZM15.4287 18.2041H12.9797V12.4899H15.4286L15.4287 18.2041Z" fill="#CEB364"/>
<path d="M28.4899 9.22461H22.7757C21.874 9.22461 21.1431 9.95555 21.1431 10.8573V19.8368C21.1431 20.7385 21.874 21.4695 22.7757 21.4695H28.4899C29.3917 21.4695 30.1226 20.7385 30.1226 19.8368V10.8573C30.1226 9.95555 29.3917 9.22461 28.4899 9.22461ZM26.8573 18.2041H24.4084V12.4899H26.8573V18.2041Z" fill="#CEB364"/>
<path d="M17.0614 25.2246H11.347C10.4453 25.2246 9.71436 25.9555 9.71436 26.8573V35.8368C9.71436 36.7385 10.4453 37.4695 11.347 37.4695H17.0612C17.9629 37.4695 18.6939 36.7385 18.6939 35.8368V26.8573C18.694 25.9555 17.9631 25.2246 17.0614 25.2246ZM15.4287 34.2041H12.9797V28.4899H15.4286L15.4287 34.2041Z" fill="#CEB364"/>
<path d="M28.4899 25.2246H22.7757C21.874 25.2246 21.1431 25.9555 21.1431 26.8573V35.8368C21.1431 36.7385 21.874 37.4695 22.7757 37.4695H28.4899C29.3917 37.4695 30.1226 36.7385 30.1226 35.8368V26.8573C30.1226 25.9555 29.3917 25.2246 28.4899 25.2246ZM26.8573 34.2041H24.4084V28.4899H26.8573V34.2041Z" fill="#CEB364"/>
<path d="M17.0614 41.2246H11.347C10.4453 41.2246 9.71436 41.9555 9.71436 42.8573V51.8368C9.71436 52.7385 10.4453 53.4695 11.347 53.4695H17.0612C17.9629 53.4695 18.6939 52.7385 18.6939 51.8368V42.8573C18.694 41.9555 17.9631 41.2246 17.0614 41.2246ZM15.4287 50.2041H12.9797V44.4899H15.4286L15.4287 50.2041Z" fill="#CEB364"/>
<path d="M28.4899 41.2246H22.7757C21.874 41.2246 21.1431 41.9555 21.1431 42.8573V51.8368C21.1431 52.7385 21.874 53.4695 22.7757 53.4695H28.4899C29.3917 53.4695 30.1226 52.7385 30.1226 51.8368V42.8573C30.1226 41.9555 29.3917 41.2246 28.4899 41.2246ZM26.8573 50.2041H24.4084V44.4899H26.8573V50.2041Z" fill="#CEB364"/>
<path d="M17.0614 57.2246H11.347C10.4453 57.2246 9.71436 57.9555 9.71436 58.8573V67.8368C9.71436 68.7385 10.4453 69.4695 11.347 69.4695H17.0612C17.9629 69.4695 18.6939 68.7385 18.6939 67.8368V58.8573C18.694 57.9555 17.9631 57.2246 17.0614 57.2246ZM15.4287 66.2041H12.9797V60.4899H15.4286L15.4287 66.2041Z" fill="#CEB364"/>
<path d="M28.4899 57.2246H22.7757C21.874 57.2246 21.1431 57.9555 21.1431 58.8573V67.8368C21.1431 68.7385 21.874 69.4695 22.7757 69.4695H28.4899C29.3917 69.4695 30.1226 68.7385 30.1226 67.8368V58.8573C30.1226 57.9555 29.3917 57.2246 28.4899 57.2246ZM26.8573 66.2041H24.4084V60.4899H26.8573V66.2041Z" fill="#CEB364"/>
<path d="M51.3626 65.2788H51.3412C50.4394 65.2788 49.7085 66.0097 49.7085 66.9115C49.7085 67.8132 50.4394 68.5441 51.3412 68.5441H51.3626C52.2643 68.5441 52.9952 67.8132 52.9952 66.9115C52.9952 66.0097 52.2643 65.2788 51.3626 65.2788Z" fill="#CEB364"/>
<path d="M51.3626 36.9795H51.3412C50.4394 36.9795 49.7085 37.7104 49.7085 38.6121C49.7085 39.5139 50.4394 40.2448 51.3412 40.2448H51.3626C52.2643 40.2448 52.9952 39.5139 52.9952 38.6121C52.9952 37.7104 52.2643 36.9795 51.3626 36.9795Z" fill="#CEB364"/>
<path d="M51.3626 42.6396H51.3412C50.4394 42.6396 49.7085 43.3706 49.7085 44.2723C49.7085 45.174 50.4394 45.905 51.3412 45.905H51.3626C52.2643 45.905 52.9952 45.174 52.9952 44.2723C52.9952 43.3706 52.2643 42.6396 51.3626 42.6396Z" fill="#CEB364"/>
<path d="M51.3626 48.2993H51.3412C50.4394 48.2993 49.7085 49.0303 49.7085 49.932C49.7085 50.8337 50.4394 51.5646 51.3412 51.5646H51.3626C52.2643 51.5646 52.9952 50.8337 52.9952 49.932C52.9952 49.0303 52.2643 48.2993 51.3626 48.2993Z" fill="#CEB364"/>
<path d="M51.3626 53.9592H51.3412C50.4394 53.9592 49.7085 54.6902 49.7085 55.5919C49.7085 56.4936 50.4394 57.2245 51.3412 57.2245H51.3626C52.2643 57.2245 52.9952 56.4936 52.9952 55.5919C52.9952 54.6902 52.2643 53.9592 51.3626 53.9592Z" fill="#CEB364"/>
<path d="M51.3626 59.6191H51.3412C50.4394 59.6191 49.7085 60.3501 49.7085 61.2518C49.7085 62.1535 50.4394 62.8844 51.3412 62.8844H51.3626C52.2643 62.8844 52.9952 62.1535 52.9952 61.2518C52.9952 60.3501 52.2643 59.6191 51.3626 59.6191Z" fill="#CEB364"/>
<path d="M78.3673 73.2246H77.0612V19.8368C77.0612 18.9351 76.3303 18.2042 75.4286 18.2042H55.8367C54.935 18.2042 54.2041 18.9351 54.2041 19.8368V31.3198H36.4081V5.14291C36.4081 4.24119 35.6772 3.51025 34.7755 3.51025H5.06125C4.15953 3.51025 3.42859 4.24119 3.42859 5.14291V73.2245H1.63266C0.730938 73.2246 0 73.9556 0 74.8573C0 75.759 0.730938 76.4899 1.63266 76.4899H75.4286H78.3673C79.2691 76.4899 80 75.759 80 74.8573C80 73.9556 79.2691 73.2246 78.3673 73.2246ZM33.1428 32.9524V73.2246H6.69391V6.77557H33.1428V32.9524ZM54.2041 73.2246H36.4081V68.5443H46.0589C46.9606 68.5443 47.6916 67.8134 47.6916 66.9117C47.6916 66.0099 46.9606 65.279 46.0589 65.279H36.4081V62.8843H46.0589C46.9606 62.8843 47.6916 62.1534 47.6916 61.2517C47.6916 60.3499 46.9606 59.619 46.0589 59.619H36.4081V57.2246H46.0589C46.9606 57.2246 47.6916 56.4937 47.6916 55.592C47.6916 54.6903 46.9606 53.9593 46.0589 53.9593H36.4081V51.5646H46.0589C46.9606 51.5646 47.6916 50.8337 47.6916 49.932C47.6916 49.0303 46.9606 48.2993 46.0589 48.2993H36.4081V45.9048H46.0589C46.9606 45.9048 47.6916 45.1738 47.6916 44.2721C47.6916 43.3704 46.9606 42.6395 46.0589 42.6395H36.4081V40.2449H46.0589C46.9606 40.2449 47.6916 39.514 47.6916 38.6123C47.6916 37.7106 46.9606 36.9796 46.0589 36.9796H36.4081V34.5849H54.2041V73.2246ZM59.102 73.2246H57.4694V32.9524V21.4695H59.102V73.2246ZM64 73.2246H62.3673V21.4695H64V73.2246ZM68.898 73.2246H67.2653V21.4695H68.898V73.2246ZM73.7959 73.2246H72.1633V21.4695H73.7959V73.2246Z" fill="#CEB364"/>
</svg>
