<svg width="80" height="80" viewBox="0 0 80 80" fill="none" xmlns="http://www.w3.org/2000/svg">
<path d="M71.3 52.4H70.175C70.175 51.625 70.225 50.825 70.3875 49.975C70.725 48.2 70.3375 46.65 69.325 45.7375C68.45 44.9501 67.2375 44.7375 65.9 45.1376C65.3625 45.3 64.875 45.5375 64.3625 45.7375C64.5875 45.2001 64.825 44.65 65.05 44.1875C65.7875 42.6625 65.75 41.15 64.95 40.15C64.6875 39.8125 64.325 39.5876 63.9375 39.4C64.7625 38.075 65.2625 36.525 65.2625 34.8625L65.3 33.475C66.8625 32.9501 68.0125 31.5125 68.0125 29.775C68.0125 27.6 66.2375 25.825 64.0625 25.825H46.8875V25.5875C46.8875 23.4125 45.1125 21.6375 42.95 21.6375H41.225V19.3625C41.225 17.875 42.4375 16.65 43.9375 16.65C45.4375 16.65 46.65 17.8625 46.65 19.3625C46.65 20.05 47.2125 20.6125 47.9 20.6125C48.5875 20.6125 49.15 20.05 49.15 19.3625C49.15 16.4875 46.8125 14.15 43.9375 14.15C42.975 14.15 42.1 14.4375 41.325 14.8875C41.7875 11.6625 44.55 9.17505 47.9 9.17505C51.25 9.17505 54.0125 11.5625 54.4875 14.85C54.5875 15.5375 55.225 16.0125 55.9 15.9C56.5875 15.8 57.05 15.1625 56.95 14.4875C56.2875 9.96255 52.475 6.67505 47.8875 6.67505C44.4875 6.67505 41.55 8.55005 39.975 11.3C38.3875 8.55005 35.45 6.67505 32.0625 6.67505C27.475 6.67505 23.6625 9.96255 23 14.4875C22.9 15.175 23.375 15.8 24.05 15.9C24.725 16.0125 25.3625 15.525 25.4625 14.85C25.95 11.5625 28.725 9.17505 32.05 9.17505C35.375 9.17505 38.15 11.6625 38.625 14.8875C37.85 14.4375 36.975 14.15 36.0125 14.15C33.1375 14.15 30.8 16.4875 30.8 19.3625C30.8 20.05 31.3625 20.6125 32.05 20.6125C32.7375 20.6125 33.3 20.05 33.3 19.3625C33.3 17.875 34.5125 16.65 36.0125 16.65C37.5125 16.65 38.725 17.8625 38.725 19.3625V21.6375H37C34.825 21.6375 33.0625 23.4125 33.0625 25.5875V25.825H15.925C13.75 25.825 11.975 27.6 11.975 29.775C11.975 31.5125 13.1125 32.9375 14.675 33.4625V34.8251C14.675 36.5126 15.175 38.0751 16.0125 39.4125C15.6375 39.5876 15.3 39.8125 15.05 40.1376C14.25 41.1376 14.225 42.65 14.95 44.175C15.175 44.6376 15.4125 45.1875 15.6375 45.7251C15.1375 45.5126 14.65 45.275 14.1 45.125C12.7625 44.725 11.55 44.9375 10.675 45.7251C9.6625 46.6376 9.275 48.1875 9.6125 49.9626C9.775 50.8125 9.825 51.6125 9.825 52.3876H8.7C6.6625 52.3876 5 54.05 5 56.0875V69.5751C5 71.6125 6.6625 73.275 8.7 73.275H71.3C73.3375 73.275 75 71.6125 75 69.5751V56.0875C75 54.05 73.3375 52.3876 71.3 52.3876V52.4ZM66.6125 47.5375C66.9375 47.4375 67.3875 47.3626 67.6375 47.6001C67.9125 47.8501 68.1 48.5375 67.925 49.5126C67.7375 50.5126 67.675 51.475 67.675 52.4125H62.5125C62.6375 51.35 62.8375 50.3 63.1375 49.2626C64.1375 48.5375 65.3 47.9501 66.625 47.55L66.6125 47.5375ZM52.9 52.4V51.375C52.9 50.4125 52.525 49.5751 51.975 48.8625C53.3625 46.5875 55.1625 44.7375 57.425 43.45C59.0875 43.2875 60.6125 42.6625 61.8625 41.7001L62.05 41.65C62.575 41.5375 62.9 41.6 62.9875 41.7125C63.1 41.85 63.15 42.3625 62.7875 43.1125C62.1 44.55 61.35 46.3625 60.775 48.3125C60.3875 49.6376 60.125 51.0125 59.9875 52.4H52.8875H52.9ZM29.5875 52.4V51.375C29.5875 50.4375 30.35 49.6625 31.3 49.6625H48.6875C49.625 49.6625 50.4 50.425 50.4 51.375V52.4H29.6H29.5875ZM19.9875 52.4C19.85 51.025 19.5875 49.65 19.2 48.3251C18.625 46.3625 17.875 44.5376 17.1875 43.1125C16.825 42.3625 16.875 41.8625 16.9875 41.7125C17.075 41.6 17.4125 41.5375 17.925 41.65L18.0375 41.675C19.3125 42.6625 20.8625 43.3 22.5625 43.45C24.825 44.7375 26.6125 46.5875 28 48.8625C27.4625 49.5751 27.075 50.4125 27.075 51.375V52.4H19.975H19.9875ZM17.1625 33.7375H62.8L62.775 34.85C62.775 38.2625 60 41.0376 56.5875 41.0376H23.3625C19.95 41.0376 17.175 38.2625 17.175 34.85V33.7375H17.1625ZM49.8875 47.4125C49.5 47.3 49.1125 47.175 48.6875 47.175H47.3V43.55H53.1C51.8625 44.6625 50.7875 45.9625 49.875 47.425L49.8875 47.4125ZM39.375 47.175V43.55H40.6375V47.175H39.375ZM35.2 47.175V43.55H36.875V47.175H35.2ZM31.3125 47.175C30.8875 47.175 30.5 47.3 30.125 47.4125C29.2125 45.9501 28.1375 44.6501 26.9 43.5376H32.7V47.1625H31.3125V47.175ZM43.1375 43.55H44.8125V47.175H43.1375V43.55ZM35.6 25.6125C35.6 24.8125 36.25 24.1625 37.0375 24.1625H42.975C43.775 24.1625 44.4125 24.8125 44.4125 25.6125V25.85H35.5875V25.6125H35.6ZM15.925 28.35H64.075C64.875 28.35 65.525 29 65.525 29.8C65.525 30.6 64.875 31.25 64.075 31.25H15.925C15.125 31.25 14.475 30.6 14.475 29.8C14.475 29 15.125 28.35 15.925 28.35ZM12.075 49.5126C11.8875 48.5375 12.075 47.8501 12.35 47.6001C12.6 47.375 13.05 47.4375 13.375 47.5375C14.7 47.925 15.85 48.5251 16.8625 49.25C17.1625 50.2876 17.3625 51.3375 17.4875 52.4H12.325C12.325 51.4625 12.2625 50.5125 12.075 49.5V49.5126ZM8.7 54.9125H71.3C71.9625 54.9125 72.5 55.45 72.5 56.1125V58.475C72.125 58.3375 71.725 58.2375 71.3 58.2375H8.7C8.275 58.2375 7.875 58.35 7.5 58.475V56.1125C7.5 55.45 8.0375 54.9125 8.7 54.9125ZM72.5 69.6C72.5 70.2626 71.9625 70.8 71.3 70.8H8.7C8.0375 70.8 7.5 70.2626 7.5 69.6V61.925C7.5 61.2626 8.0375 60.7251 8.7 60.7251H71.3C71.9625 60.7251 72.5 61.2626 72.5 61.925V69.6Z" fill="#CEB364"/>
<path d="M14.25 67.9126C14.9404 67.9126 15.5 67.353 15.5 66.6626C15.5 65.9722 14.9404 65.4126 14.25 65.4126C13.5596 65.4126 13 65.9722 13 66.6626C13 67.353 13.5596 67.9126 14.25 67.9126Z" fill="#CEB364"/>
<path d="M29.6377 65.0625C30.3281 65.0625 30.8877 64.5029 30.8877 63.8125C30.8877 63.1221 30.3281 62.5625 29.6377 62.5625C28.9473 62.5625 28.3877 63.1221 28.3877 63.8125C28.3877 64.5029 28.9473 65.0625 29.6377 65.0625Z" fill="#CEB364"/>
<path d="M45.0249 68.9001C45.7153 68.9001 46.2749 68.3405 46.2749 67.6501C46.2749 66.9598 45.7153 66.4001 45.0249 66.4001C44.3345 66.4001 43.7749 66.9598 43.7749 67.6501C43.7749 68.3405 44.3345 68.9001 45.0249 68.9001Z" fill="#CEB364"/>
<path d="M56.8623 65.6501C57.5527 65.6501 58.1123 65.0905 58.1123 64.4001C58.1123 63.7098 57.5527 63.1501 56.8623 63.1501C56.1719 63.1501 55.6123 63.7098 55.6123 64.4001C55.6123 65.0905 56.1719 65.6501 56.8623 65.6501Z" fill="#CEB364"/>
<path d="M24.1626 20.1875C24.853 20.1875 25.4126 19.6279 25.4126 18.9375C25.4126 18.2471 24.853 17.6875 24.1626 17.6875C23.4722 17.6875 22.9126 18.2471 22.9126 18.9375C22.9126 19.6279 23.4722 20.1875 24.1626 20.1875Z" fill="#CEB364"/>
<path d="M24.1626 24.4001C24.853 24.4001 25.4126 23.8405 25.4126 23.1501C25.4126 22.4598 24.853 21.9001 24.1626 21.9001C23.4722 21.9001 22.9126 22.4598 22.9126 23.1501C22.9126 23.8405 23.4722 24.4001 24.1626 24.4001Z" fill="#CEB364"/>
<path d="M55.8374 20.1875C56.5278 20.1875 57.0874 19.6279 57.0874 18.9375C57.0874 18.2471 56.5278 17.6875 55.8374 17.6875C55.147 17.6875 54.5874 18.2471 54.5874 18.9375C54.5874 19.6279 55.147 20.1875 55.8374 20.1875Z" fill="#CEB364"/>
<path d="M55.8374 24.4001C56.5278 24.4001 57.0874 23.8405 57.0874 23.1501C57.0874 22.4598 56.5278 21.9001 55.8374 21.9001C55.147 21.9001 54.5874 22.4598 54.5874 23.1501C54.5874 23.8405 55.147 24.4001 55.8374 24.4001Z" fill="#CEB364"/>
<path d="M28.3501 22.05C29.0405 22.05 29.6001 21.4904 29.6001 20.8C29.6001 20.1097 29.0405 19.55 28.3501 19.55C27.6597 19.55 27.1001 20.1097 27.1001 20.8C27.1001 21.4904 27.6597 22.05 28.3501 22.05Z" fill="#CEB364"/>
<path d="M51.6499 22.05C52.3403 22.05 52.8999 21.4904 52.8999 20.8C52.8999 20.1097 52.3403 19.55 51.6499 19.55C50.9595 19.55 50.3999 20.1097 50.3999 20.8C50.3999 21.4904 50.9595 22.05 51.6499 22.05Z" fill="#CEB364"/>
<path d="M67.8125 67.4751C68.5029 67.4751 69.0625 66.9155 69.0625 66.2251C69.0625 65.5347 68.5029 64.9751 67.8125 64.9751C67.1221 64.9751 66.5625 65.5347 66.5625 66.2251C66.5625 66.9155 67.1221 67.4751 67.8125 67.4751Z" fill="#CEB364"/>
</svg>
