<svg width="80" height="80" viewBox="0 0 80 80" fill="none" xmlns="http://www.w3.org/2000/svg">
<path fill-rule="evenodd" clip-rule="evenodd" d="M10 78.3334V33.3334C10 29.6517 12.985 26.6667 16.6667 26.6667V20.0001C16.6667 18.1601 18.16 16.6667 20 16.6667H23.3333V3.33341C23.3333 2.41341 24.0783 1.66675 25 1.66675C25.9217 1.66675 26.6667 2.41341 26.6667 3.33341V16.6667H30C31.84 16.6667 33.3333 18.1601 33.3333 20.0001V26.6667C37.015 26.6667 40 29.6517 40 33.3334V46.6667H51.6667V36.6667H58.3333V31.6667H68.3333V36.6667H70V78.3334H10ZM30 21.6667C30 20.7467 29.255 20.0001 28.3333 20.0001H21.6667C20.745 20.0001 20 20.7467 20 21.6667V26.6667H30V21.6667ZM36.6667 33.3334C36.6667 31.4934 35.1733 30.0001 33.3333 30.0001H16.6667C14.8267 30.0001 13.3333 31.4934 13.3333 33.3334V75.0001H36.6667V33.3334ZM51.6667 50.0001H40V75.0001H51.6667V50.0001ZM66.6667 40.0001H55V75.0001H66.6667V40.0001ZM60 45.0001H61.6667C62.5883 45.0001 63.3333 45.7451 63.3333 46.6667V48.3334C63.3333 49.2551 62.5883 50.0001 61.6667 50.0001H60C59.0783 50.0001 58.3333 49.2551 58.3333 48.3334V46.6667C58.3333 45.7451 59.0783 45.0001 60 45.0001ZM60 55.0001H61.6667C62.5883 55.0001 63.3333 55.7451 63.3333 56.6667V58.3334C63.3333 59.2551 62.5883 60.0001 61.6667 60.0001H60C59.0783 60.0001 58.3333 59.2551 58.3333 58.3334V56.6667C58.3333 55.7451 59.0783 55.0001 60 55.0001ZM60 65.0001H61.6667C62.5883 65.0001 63.3333 65.7451 63.3333 66.6667V68.3334C63.3333 69.2551 62.5883 70.0001 61.6667 70.0001H60C59.0783 70.0001 58.3333 69.2551 58.3333 68.3334V66.6667C58.3333 65.7451 59.0783 65.0001 60 65.0001ZM45 55.0001H46.6667C47.5883 55.0001 48.3333 55.7451 48.3333 56.6667V58.3334C48.3333 59.2551 47.5883 60.0001 46.6667 60.0001H45C44.0783 60.0001 43.3333 59.2551 43.3333 58.3334V56.6667C43.3333 55.7451 44.0783 55.0001 45 55.0001ZM45 65.0001H46.6667C47.5883 65.0001 48.3333 65.7451 48.3333 66.6667V68.3334C48.3333 69.2551 47.5883 70.0001 46.6667 70.0001H45C44.0783 70.0001 43.3333 69.2551 43.3333 68.3334V66.6667C43.3333 65.7451 44.0783 65.0001 45 65.0001ZM30 70.0001H28.3333C27.4117 70.0001 26.6667 69.2551 26.6667 68.3334V66.6667C26.6667 65.7467 27.4117 65.0001 28.3333 65.0001H30C30.9217 65.0001 31.6667 65.7467 31.6667 66.6667V68.3334C31.6667 69.2551 30.9217 70.0001 30 70.0001ZM30 60.0001H28.3333C27.4117 60.0001 26.6667 59.2551 26.6667 58.3334V56.6667C26.6667 55.7467 27.4117 55.0001 28.3333 55.0001H30C30.9217 55.0001 31.6667 55.7467 31.6667 56.6667V58.3334C31.6667 59.2551 30.9217 60.0001 30 60.0001ZM30 50.0001H28.3333C27.4117 50.0001 26.6667 49.2551 26.6667 48.3334V46.6667C26.6667 45.7467 27.4117 45.0001 28.3333 45.0001H30C30.9217 45.0001 31.6667 45.7467 31.6667 46.6667V48.3334C31.6667 49.2551 30.9217 50.0001 30 50.0001ZM30 40.0001H28.3333C27.4117 40.0001 26.6667 39.2551 26.6667 38.3334V36.6667C26.6667 35.7467 27.4117 35.0001 28.3333 35.0001H30C30.9217 35.0001 31.6667 35.7467 31.6667 36.6667V38.3334C31.6667 39.2551 30.9217 40.0001 30 40.0001ZM21.6667 70.0001H20C19.0783 70.0001 18.3333 69.2551 18.3333 68.3334V66.6667C18.3333 65.7451 19.0783 65.0001 20 65.0001H21.6667C22.5883 65.0001 23.3333 65.7451 23.3333 66.6667V68.3334C23.3333 69.2551 22.5883 70.0001 21.6667 70.0001ZM21.6667 60.0001H20C19.0783 60.0001 18.3333 59.2551 18.3333 58.3334V56.6667C18.3333 55.7451 19.0783 55.0001 20 55.0001H21.6667C22.5883 55.0001 23.3333 55.7451 23.3333 56.6667V58.3334C23.3333 59.2551 22.5883 60.0001 21.6667 60.0001ZM21.6667 50.0001H20C19.0783 50.0001 18.3333 49.2551 18.3333 48.3334V46.6667C18.3333 45.7467 19.0783 45.0001 20 45.0001H21.6667C22.5883 45.0001 23.3333 45.7467 23.3333 46.6667V48.3334C23.3333 49.2551 22.5883 50.0001 21.6667 50.0001ZM21.6667 40.0001H20C19.0783 40.0001 18.3333 39.2551 18.3333 38.3334V36.6667C18.3333 35.7467 19.0783 35.0001 20 35.0001H21.6667C22.5883 35.0001 23.3333 35.7467 23.3333 36.6667V38.3334C23.3333 39.2551 22.5883 40.0001 21.6667 40.0001Z" fill="#CEB364"/>
</svg>
