<svg width="80" height="80" viewBox="0 0 80 80" fill="none" xmlns="http://www.w3.org/2000/svg">
<path d="M75 43.7499C75.3315 43.7499 75.6495 43.6183 75.8839 43.3838C76.1183 43.1494 76.25 42.8315 76.25 42.4999V38.7499H77.5C77.8315 38.7499 78.1495 38.6183 78.3839 38.3838C78.6183 38.1494 78.75 37.8315 78.75 37.4999V29.9999C78.75 29.6684 78.6183 29.3505 78.3839 29.1161C78.1495 28.8816 77.8315 28.7499 77.5 28.7499H75.1625C72.4996 22.9922 68.4639 17.9763 63.4097 14.1426C58.3555 10.3089 52.4374 7.77469 46.175 6.76245C45.9448 5.29003 45.1961 3.94833 44.0638 2.97932C42.9315 2.01031 41.4903 1.47778 40 1.47778C38.5097 1.47778 37.0684 2.01031 35.9362 2.97932C34.8039 3.94833 34.0552 5.29003 33.825 6.76245C27.5626 7.77902 21.6447 10.3148 16.5892 14.1478C11.5336 17.9809 7.49443 22.9945 4.825 28.7499H2.5C2.16848 28.7499 1.85054 28.8816 1.61612 29.1161C1.3817 29.3505 1.25 29.6684 1.25 29.9999V37.4999C1.25 37.8315 1.3817 38.1494 1.61612 38.3838C1.85054 38.6183 2.16848 38.7499 2.5 38.7499H3.75V42.4999C3.75 42.8315 3.8817 43.1494 4.11612 43.3838C4.35054 43.6183 4.66848 43.7499 5 43.7499H6.25V63.7499H5C4.66848 63.7499 4.35054 63.8816 4.11612 64.1161C3.8817 64.3505 3.75 64.6684 3.75 64.9999V68.7499H2.5C2.16848 68.7499 1.85054 68.8816 1.61612 69.1161C1.3817 69.3505 1.25 69.6684 1.25 69.9999V77.4999C1.25 77.8315 1.3817 78.1494 1.61612 78.3838C1.85054 78.6182 2.16848 78.7499 2.5 78.7499H77.5C77.8315 78.7499 78.1495 78.6182 78.3839 78.3838C78.6183 78.1494 78.75 77.8315 78.75 77.4999V69.9999C78.75 69.6684 78.6183 69.3505 78.3839 69.1161C78.1495 68.8816 77.8315 68.7499 77.5 68.7499H76.25V64.9999C76.25 64.6684 76.1183 64.3505 75.8839 64.1161C75.6495 63.8816 75.3315 63.7499 75 63.7499H73.75V43.7499H75ZM73.75 41.2499H66.25V38.7499H73.75V41.2499ZM65 63.7499C64.6685 63.7499 64.3505 63.8816 64.1161 64.1161C63.8817 64.3505 63.75 64.6684 63.75 64.9999V68.7499H56.25V64.9999C56.25 64.6684 56.1183 64.3505 55.8839 64.1161C55.6495 63.8816 55.3315 63.7499 55 63.7499H53.75V43.7499H55C55.3315 43.7499 55.6495 43.6183 55.8839 43.3838C56.1183 43.1494 56.25 42.8315 56.25 42.4999V38.7499H63.75V42.4999C63.75 42.8315 63.8817 43.1494 64.1161 43.3838C64.3505 43.6183 64.6685 43.7499 65 43.7499H66.25V63.7499H65ZM15 63.7499H13.75V43.7499H15C15.3315 43.7499 15.6495 43.6183 15.8839 43.3838C16.1183 43.1494 16.25 42.8315 16.25 42.4999V38.7499H23.75V42.4999C23.75 42.8315 23.8817 43.1494 24.1161 43.3838C24.3505 43.6183 24.6685 43.7499 25 43.7499H26.25V63.7499H25C24.6685 63.7499 24.3505 63.8816 24.1161 64.1161C23.8817 64.3505 23.75 64.6684 23.75 64.9999V68.7499H16.25V64.9999C16.25 64.6684 16.1183 64.3505 15.8839 64.1161C15.6495 63.8816 15.3315 63.7499 15 63.7499ZM28.75 63.7499V43.7499H31.25V63.7499H28.75ZM26.25 41.2499V38.7499H33.75V41.2499H26.25ZM26.25 66.2499H33.75V68.7499H26.25V66.2499ZM35 63.7499H33.75V43.7499H35C35.3315 43.7499 35.6495 43.6183 35.8839 43.3838C36.1183 43.1494 36.25 42.8315 36.25 42.4999V38.7499H43.75V42.4999C43.75 42.8315 43.8817 43.1494 44.1161 43.3838C44.3505 43.6183 44.6685 43.7499 45 43.7499H46.25V63.7499H45C44.6685 63.7499 44.3505 63.8816 44.1161 64.1161C43.8817 64.3505 43.75 64.6684 43.75 64.9999V68.7499H36.25V64.9999C36.25 64.6684 36.1183 64.3505 35.8839 64.1161C35.6495 63.8816 35.3315 63.7499 35 63.7499ZM48.75 63.7499V43.7499H51.25V63.7499H48.75ZM46.25 41.2499V38.7499H53.75V41.2499H46.25ZM46.25 66.2499H53.75V68.7499H46.25V66.2499ZM57.5 16.2499C56.5054 16.2499 55.5516 16.645 54.8484 17.3483C54.1451 18.0516 53.75 19.0054 53.75 19.9999V21.2499C53.75 21.5815 53.6183 21.8994 53.3839 22.1338C53.1495 22.3682 52.8315 22.4999 52.5 22.4999C52.1685 22.4999 51.8505 22.3682 51.6161 22.1338C51.3817 21.8994 51.25 21.5815 51.25 21.2499C51.25 20.2554 50.8549 19.3016 50.1516 18.5983C49.4484 17.895 48.4946 17.4999 47.5 17.4999C46.5054 17.4999 45.5516 17.895 44.8484 18.5983C44.1451 19.3016 43.75 20.2554 43.75 21.2499V22.4999C43.75 22.8315 43.6183 23.1494 43.3839 23.3838C43.1495 23.6182 42.8315 23.7499 42.5 23.7499C42.1685 23.7499 41.8505 23.6182 41.6161 23.3838C41.3817 23.1494 41.25 22.8315 41.25 22.4999V17.4999C41.25 16.5054 40.8549 15.5516 40.1516 14.8483C39.4484 14.145 38.4946 13.7499 37.5 13.7499C36.5054 13.7499 35.5516 14.145 34.8484 14.8483C34.1451 15.5516 33.75 16.5054 33.75 17.4999C33.75 17.8315 33.6183 18.1494 33.3839 18.3838C33.1495 18.6182 32.8315 18.7499 32.5 18.7499C32.1685 18.7499 31.8505 18.6182 31.6161 18.3838C31.3817 18.1494 31.25 17.8315 31.25 17.4999V9.84995C34.11 9.12318 37.0491 8.7537 40 8.74995C49.3081 8.74995 58.2596 12.3305 65 18.7499V21.8749C65 22.3722 64.8025 22.8491 64.4508 23.2008C64.0992 23.5524 63.6223 23.7499 63.125 23.7499C62.6277 23.7499 62.1508 23.5524 61.7992 23.2008C61.4475 22.8491 61.25 22.3722 61.25 21.8749V19.9999C61.25 19.0054 60.8549 18.0516 60.1516 17.3483C59.4484 16.645 58.4946 16.2499 57.5 16.2499ZM40 3.74995C40.8055 3.75453 41.5881 4.01837 42.232 4.5024C42.8759 4.98644 43.3468 5.66493 43.575 6.43745C42.4 6.32495 41.25 6.24995 40 6.24995C38.75 6.24995 37.6 6.32495 36.425 6.43745C36.6532 5.66493 37.1241 4.98644 37.768 4.5024C38.4119 4.01837 39.1945 3.75453 40 3.74995ZM28.75 10.5624V17.4999C28.75 18.4945 29.1451 19.4483 29.8483 20.1516C30.5516 20.8549 31.5054 21.2499 32.5 21.2499C33.4946 21.2499 34.4484 20.8549 35.1516 20.1516C35.8549 19.4483 36.25 18.4945 36.25 17.4999C36.25 17.1684 36.3817 16.8505 36.6161 16.6161C36.8505 16.3816 37.1685 16.2499 37.5 16.2499C37.8315 16.2499 38.1495 16.3816 38.3839 16.6161C38.6183 16.8505 38.75 17.1684 38.75 17.4999V22.4999C38.75 23.4945 39.1451 24.4483 39.8484 25.1516C40.5516 25.8549 41.5054 26.2499 42.5 26.2499C43.4946 26.2499 44.4484 25.8549 45.1516 25.1516C45.8549 24.4483 46.25 23.4945 46.25 22.4999V21.2499C46.25 20.9184 46.3817 20.6005 46.6161 20.3661C46.8505 20.1316 47.1685 19.9999 47.5 19.9999C47.8315 19.9999 48.1495 20.1316 48.3839 20.3661C48.6183 20.6005 48.75 20.9184 48.75 21.2499C48.75 22.2445 49.1451 23.1983 49.8484 23.9016C50.5516 24.6049 51.5054 24.9999 52.5 24.9999C53.4946 24.9999 54.4484 24.6049 55.1516 23.9016C55.8549 23.1983 56.25 22.2445 56.25 21.2499V19.9999C56.25 19.6684 56.3817 19.3505 56.6161 19.1161C56.8505 18.8816 57.1685 18.7499 57.5 18.7499C57.8315 18.7499 58.1495 18.8816 58.3839 19.1161C58.6183 19.3505 58.75 19.6684 58.75 19.9999V21.8749C58.75 23.0353 59.2109 24.1481 60.0314 24.9685C60.8519 25.789 61.9647 26.2499 63.125 26.2499C64.2853 26.2499 65.3981 25.789 66.2186 24.9685C67.0391 24.1481 67.5 23.0353 67.5 21.8749V21.3874C69.4248 23.632 71.0663 26.1047 72.3875 28.7499H7.6125C9.7641 24.4755 12.7391 20.6683 16.3665 17.5471C19.994 14.4259 24.2024 12.0523 28.75 10.5624ZM3.75 31.2499H76.25V36.2499H3.75V31.2499ZM13.75 38.7499V41.2499H6.25V38.7499H13.75ZM8.75 43.7499H11.25V63.7499H8.75V43.7499ZM6.25 66.2499H13.75V68.7499H6.25V66.2499ZM76.25 76.2499H3.75V71.2499H76.25V76.2499ZM66.25 68.7499V66.2499H73.75V68.7499H66.25ZM71.25 63.7499H68.75V43.7499H71.25V63.7499Z" fill="#CEB364"/>
</svg>
