<svg width="80" height="80" viewBox="0 0 80 80" fill="none" xmlns="http://www.w3.org/2000/svg">
<g opacity="0.8">
<path d="M73.3265 7.64734H56.5516C55.6716 7.64734 54.958 8.36078 54.958 9.24094V38.5764H44.0243V25.5552V1.59359C44.0243 0.713438 43.3107 0 42.4307 0H32.8445C31.9645 0 31.2509 0.713438 31.2509 1.59359V23.9614H27.7293V15.1394C27.7293 14.2592 27.0157 13.5458 26.1357 13.5458C25.2557 13.5458 24.5421 14.2592 24.5421 15.1394V23.9614H22.818C21.938 23.9614 21.2245 24.6748 21.2245 25.555V33.308H13.0679V27.4103C13.0679 26.5302 12.3543 25.8167 11.4743 25.8167C10.5943 25.8167 9.8807 26.5302 9.8807 27.4103V33.3081H6.67367C5.79367 33.3081 5.08008 34.0216 5.08008 34.9017V78.4062C5.08008 79.2864 5.79367 79.9998 6.67367 79.9998H73.3265C74.2065 79.9998 74.9201 79.2864 74.9201 78.4062V9.24094C74.9201 8.36078 74.2065 7.64734 73.3265 7.64734ZM21.2243 76.8128H8.26727V36.4955H21.2243V76.8128ZM40.8371 76.8128H24.4115V27.1488H40.837V76.8128H40.8371ZM40.8371 23.9614H34.438V3.18719H40.8371V23.9614ZM54.9568 76.8128H44.0243V41.7634H54.9568V76.8128ZM71.7329 76.8128H58.1454V10.8345H71.7329V76.8128Z" fill="#CEB364"/>
<path d="M29.1058 31.0989C28.2258 31.0989 27.5122 31.8123 27.5122 32.6925V34.8084C27.5122 35.6886 28.2256 36.402 29.1058 36.402C29.9858 36.402 30.6994 35.6886 30.6994 34.8084V32.6925C30.6994 31.8125 29.9858 31.0989 29.1058 31.0989Z" fill="#CEB364"/>
<path d="M35.9032 31.0989C35.0232 31.0989 34.3096 31.8123 34.3096 32.6925V34.8084C34.3096 35.6886 35.0232 36.402 35.9032 36.402C36.7832 36.402 37.4968 35.6886 37.4968 34.8084V32.6925C37.4968 31.8125 36.7832 31.0989 35.9032 31.0989Z" fill="#CEB364"/>
<path d="M37.6024 16.4841C36.7224 16.4841 36.0088 17.1976 36.0088 18.0777V20.1937C36.0088 21.0738 36.7224 21.7873 37.6024 21.7873C38.4824 21.7873 39.196 21.0738 39.196 20.1937V18.0777C39.1961 17.1976 38.4825 16.4841 37.6024 16.4841Z" fill="#CEB364"/>
<path d="M37.6024 8.15723C36.7224 8.15723 36.0088 8.87066 36.0088 9.75082V11.8668C36.0088 12.7469 36.7224 13.4604 37.6024 13.4604C38.4824 13.4604 39.196 12.7469 39.196 11.8668V9.75082C39.1961 8.87066 38.4825 8.15723 37.6024 8.15723Z" fill="#CEB364"/>
<path d="M29.1058 40.377C28.2258 40.377 27.5122 41.0904 27.5122 41.9705V44.0865C27.5122 44.9666 28.2256 45.6801 29.1058 45.6801C29.9858 45.6801 30.6994 44.9666 30.6994 44.0865V41.9705C30.6994 41.0904 29.9858 40.377 29.1058 40.377Z" fill="#CEB364"/>
<path d="M35.9032 40.377C35.0232 40.377 34.3096 41.0904 34.3096 41.9705V44.0865C34.3096 44.9666 35.0232 45.6801 35.9032 45.6801C36.7832 45.6801 37.4968 44.9666 37.4968 44.0865V41.9705C37.4968 41.0904 36.7832 40.377 35.9032 40.377Z" fill="#CEB364"/>
<path d="M29.1058 49.0034C28.2258 49.0034 27.5122 49.7169 27.5122 50.597V52.7131C27.5122 53.5933 28.2256 54.3067 29.1058 54.3067C29.9858 54.3067 30.6994 53.5933 30.6994 52.7131V50.5972C30.6994 49.717 29.9858 49.0034 29.1058 49.0034Z" fill="#CEB364"/>
<path d="M35.9032 49.0034C35.0232 49.0034 34.3096 49.7169 34.3096 50.597V52.7131C34.3096 53.5933 35.0232 54.3067 35.9032 54.3067C36.7832 54.3067 37.4968 53.5933 37.4968 52.7131V50.5972C37.4968 49.717 36.7832 49.0034 35.9032 49.0034Z" fill="#CEB364"/>
<path d="M29.1058 58.2815C28.2258 58.2815 27.5122 58.9949 27.5122 59.8751V61.9912C27.5122 62.8713 28.2256 63.5848 29.1058 63.5848C29.9858 63.5848 30.6994 62.8713 30.6994 61.9912V59.8751C30.6994 58.9949 29.9858 58.2815 29.1058 58.2815Z" fill="#CEB364"/>
<path d="M35.9032 58.2815C35.0232 58.2815 34.3096 58.9949 34.3096 59.8751V61.9912C34.3096 62.8713 35.0232 63.5848 35.9032 63.5848C36.7832 63.5848 37.4968 62.8713 37.4968 61.9912V59.8751C37.4968 58.9949 36.7832 58.2815 35.9032 58.2815Z" fill="#CEB364"/>
<path d="M29.1058 67.5593C28.2258 67.5593 27.5122 68.2728 27.5122 69.1529V71.269C27.5122 72.1492 28.2256 72.8626 29.1058 72.8626C29.9858 72.8626 30.6994 72.1492 30.6994 71.269V69.1531C30.6994 68.2728 29.9858 67.5593 29.1058 67.5593Z" fill="#CEB364"/>
<path d="M35.9032 67.5593C35.0232 67.5593 34.3096 68.2728 34.3096 69.1529V71.269C34.3096 72.1492 35.0232 72.8626 35.9032 72.8626C36.7832 72.8626 37.4968 72.1492 37.4968 71.269V69.1531C37.4968 68.2728 36.7832 67.5593 35.9032 67.5593Z" fill="#CEB364"/>
<path d="M62.244 31.0989C61.364 31.0989 60.6504 31.8123 60.6504 32.6925V34.8084C60.6504 35.6886 61.364 36.402 62.244 36.402C63.124 36.402 63.8376 35.6886 63.8376 34.8084V32.6925C63.8376 31.8125 63.124 31.0989 62.244 31.0989Z" fill="#CEB364"/>
<path d="M68.1917 31.0989C67.3117 31.0989 66.5981 31.8123 66.5981 32.6925V34.8084C66.5981 35.6886 67.3117 36.402 68.1917 36.402C69.0717 36.402 69.7853 35.6886 69.7853 34.8084V32.6925C69.7853 31.8125 69.0717 31.0989 68.1917 31.0989Z" fill="#CEB364"/>
<path d="M62.244 40.377C61.364 40.377 60.6504 41.0904 60.6504 41.9705V44.0865C60.6504 44.9666 61.364 45.6801 62.244 45.6801C63.124 45.6801 63.8376 44.9666 63.8376 44.0865V41.9705C63.8376 41.0904 63.124 40.377 62.244 40.377Z" fill="#CEB364"/>
<path d="M68.1917 40.377C67.3117 40.377 66.5981 41.0904 66.5981 41.9705V44.0865C66.5981 44.9666 67.3117 45.6801 68.1917 45.6801C69.0717 45.6801 69.7853 44.9666 69.7853 44.0865V41.9705C69.7853 41.0904 69.0717 40.377 68.1917 40.377Z" fill="#CEB364"/>
<path d="M62.244 49.0034C61.364 49.0034 60.6504 49.7169 60.6504 50.597V52.7131C60.6504 53.5933 61.364 54.3067 62.244 54.3067C63.124 54.3067 63.8376 53.5933 63.8376 52.7131V50.5972C63.8376 49.717 63.124 49.0034 62.244 49.0034Z" fill="#CEB364"/>
<path d="M68.1917 49.0034C67.3117 49.0034 66.5981 49.7169 66.5981 50.597V52.7131C66.5981 53.5933 67.3117 54.3067 68.1917 54.3067C69.0717 54.3067 69.7853 53.5933 69.7853 52.7131V50.5972C69.7853 49.717 69.0717 49.0034 68.1917 49.0034Z" fill="#CEB364"/>
<path d="M62.244 13.3887C61.364 13.3887 60.6504 14.1021 60.6504 14.9823V17.0984C60.6504 17.9785 61.364 18.692 62.244 18.692C63.124 18.692 63.8376 17.9785 63.8376 17.0984V14.9823C63.8376 14.1021 63.124 13.3887 62.244 13.3887Z" fill="#CEB364"/>
<path d="M68.1917 13.3887C67.3117 13.3887 66.5981 14.1021 66.5981 14.9823V17.0984C66.5981 17.9785 67.3117 18.692 68.1917 18.692C69.0717 18.692 69.7853 17.9785 69.7853 17.0984V14.9823C69.7853 14.1021 69.0717 13.3887 68.1917 13.3887Z" fill="#CEB364"/>
<path d="M62.244 22.0154C61.364 22.0154 60.6504 22.7288 60.6504 23.609V25.7249C60.6504 26.6051 61.364 27.3185 62.244 27.3185C63.124 27.3185 63.8376 26.6051 63.8376 25.7249V23.609C63.8376 22.7288 63.124 22.0154 62.244 22.0154Z" fill="#CEB364"/>
<path d="M68.1917 22.0154C67.3117 22.0154 66.5981 22.7288 66.5981 23.609V25.7249C66.5981 26.6051 67.3117 27.3185 68.1917 27.3185C69.0717 27.3185 69.7853 26.6051 69.7853 25.7249V23.609C69.7853 22.7288 69.0717 22.0154 68.1917 22.0154Z" fill="#CEB364"/>
<path d="M62.244 58.2815C61.364 58.2815 60.6504 58.9949 60.6504 59.8751V61.9912C60.6504 62.8713 61.364 63.5848 62.244 63.5848C63.124 63.5848 63.8376 62.8713 63.8376 61.9912V59.8751C63.8376 58.9949 63.124 58.2815 62.244 58.2815Z" fill="#CEB364"/>
<path d="M68.1917 58.2815C67.3117 58.2815 66.5981 58.9949 66.5981 59.8751V61.9912C66.5981 62.8713 67.3117 63.5848 68.1917 63.5848C69.0717 63.5848 69.7853 62.8713 69.7853 61.9912V59.8751C69.7853 58.9949 69.0717 58.2815 68.1917 58.2815Z" fill="#CEB364"/>
<path d="M62.244 67.5593C61.364 67.5593 60.6504 68.2728 60.6504 69.1529V71.269C60.6504 72.1492 61.364 72.8626 62.244 72.8626C63.124 72.8626 63.8376 72.1492 63.8376 71.269V69.1531C63.8376 68.2728 63.124 67.5593 62.244 67.5593Z" fill="#CEB364"/>
<path d="M68.1917 67.5593C67.3117 67.5593 66.5981 68.2728 66.5981 69.1529V71.269C66.5981 72.1492 67.3117 72.8626 68.1917 72.8626C69.0717 72.8626 69.7853 72.1492 69.7853 71.269V69.1531C69.7853 68.2728 69.0717 67.5593 68.1917 67.5593Z" fill="#CEB364"/>
<path d="M17.7194 39.5959H11.9417C11.0617 39.5959 10.3481 40.3094 10.3481 41.1895C10.3481 42.0697 11.0617 42.7831 11.9417 42.7831H17.7196C18.5996 42.7831 19.3131 42.0697 19.3131 41.1895C19.3131 40.3094 18.5996 39.5959 17.7194 39.5959Z" fill="#CEB364"/>
<path d="M17.7194 52.1436H11.9417C11.0617 52.1436 10.3481 52.857 10.3481 53.7371C10.3481 54.6173 11.0617 55.3307 11.9417 55.3307H17.7196C18.5996 55.3307 19.3131 54.6173 19.3131 53.7371C19.3131 52.857 18.5996 52.1436 17.7194 52.1436Z" fill="#CEB364"/>
<path d="M17.7194 58.3174H11.9417C11.0617 58.3174 10.3481 59.0308 10.3481 59.911C10.3481 60.7911 11.0617 61.5046 11.9417 61.5046H17.7196C18.5996 61.5046 19.3131 60.7911 19.3131 59.911C19.3131 59.0308 18.5996 58.3174 17.7194 58.3174Z" fill="#CEB364"/>
<path d="M17.7194 64.6907H11.9417C11.0617 64.6907 10.3481 65.4041 10.3481 66.2843C10.3481 67.1644 11.0617 67.8779 11.9417 67.8779H17.7196C18.5996 67.8779 19.3131 67.1644 19.3131 66.2843C19.3131 65.4043 18.5996 64.6907 17.7194 64.6907Z" fill="#CEB364"/>
<path d="M17.7194 70.8647H11.9417C11.0617 70.8647 10.3481 71.5782 10.3481 72.4583C10.3481 73.3385 11.0617 74.0519 11.9417 74.0519H17.7196C18.5996 74.0519 19.3131 73.3385 19.3131 72.4583C19.3131 71.5782 18.5996 70.8647 17.7194 70.8647Z" fill="#CEB364"/>
<path d="M51.3675 44.0144H47.2889C46.4089 44.0144 45.6953 44.7278 45.6953 45.608C45.6953 46.4882 46.4089 47.2016 47.2889 47.2016H51.3675C52.2475 47.2016 52.9611 46.4882 52.9611 45.608C52.9611 44.7278 52.2475 44.0144 51.3675 44.0144Z" fill="#CEB364"/>
<path d="M51.3675 51.4917H47.2889C46.4089 51.4917 45.6953 52.2051 45.6953 53.0853C45.6953 53.9655 46.4089 54.6789 47.2889 54.6789H51.3675C52.2475 54.6789 52.9611 53.9655 52.9611 53.0853C52.9611 52.2053 52.2475 51.4917 51.3675 51.4917Z" fill="#CEB364"/>
<path d="M51.3675 59.1389H47.2889C46.4089 59.1389 45.6953 59.8523 45.6953 60.7325C45.6953 61.6127 46.4089 62.3261 47.2889 62.3261H51.3675C52.2475 62.3261 52.9611 61.6127 52.9611 60.7325C52.9611 59.8525 52.2475 59.1389 51.3675 59.1389Z" fill="#CEB364"/>
<path d="M51.3675 66.9563H47.2889C46.4089 66.9563 45.6953 67.6697 45.6953 68.5499C45.6953 69.43 46.4089 70.1435 47.2889 70.1435H51.3675C52.2475 70.1435 52.9611 69.43 52.9611 68.5499C52.9611 67.6697 52.2475 66.9563 51.3675 66.9563Z" fill="#CEB364"/>
<path d="M26.1356 6.85254C25.2556 6.85254 24.542 7.56598 24.542 8.44613V10.3585C24.542 11.2386 25.2556 11.9521 26.1356 11.9521C27.0156 11.9521 27.7292 11.2386 27.7292 10.3585V8.44613C27.7292 7.56598 27.0156 6.85254 26.1356 6.85254Z" fill="#CEB364"/>
</g>
</svg>
