<svg width="80" height="80" viewBox="0 0 80 80" fill="none" xmlns="http://www.w3.org/2000/svg">
<path d="M36.5219 20.625C35.5613 20.625 34.7827 21.3245 34.7827 22.1875V72.188C34.7827 73.0508 35.5613 73.7505 36.5219 73.7505C37.4824 73.7505 38.261 73.0508 38.261 72.188V22.1875C38.261 21.3247 37.4824 20.625 36.5219 20.625Z" fill="#CEB364"/>
<path d="M19.1303 55H19.1713C20.1318 55 20.9104 54.3003 20.9104 53.4375C20.9104 52.5745 20.1318 51.875 19.1713 51.875H19.1303C18.1697 51.875 17.3911 52.5745 17.3911 53.4375C17.3911 54.3005 18.1697 55 19.1303 55Z" fill="#CEB364"/>
<path d="M45.217 26.7136C45.217 25.8508 44.4384 25.1511 43.4779 25.1511C42.5174 25.1511 41.7388 25.8508 41.7388 26.7136V31.5628L41.7393 72.188C41.7393 73.0508 42.5179 73.7505 43.4784 73.7505C44.4388 73.7505 45.2176 73.0508 45.2176 72.188L45.217 31.5628V26.7136Z" fill="#CEB364"/>
<path d="M43.4779 23.7869C44.4384 23.7869 45.217 23.0872 45.217 22.2244V22.1875C45.217 21.3245 44.4384 20.625 43.4779 20.625C42.5174 20.625 41.7388 21.3245 41.7388 22.1875V22.2244C41.7388 23.0873 42.5176 23.7869 43.4779 23.7869Z" fill="#CEB364"/>
<path d="M1.78018 76.875H1.73914C0.778786 76.875 0 77.5747 0 78.4375C0 79.3003 0.778612 80 1.73914 80H1.78018C2.74071 80 3.51932 79.3003 3.51932 78.4375C3.51932 77.5747 2.74088 76.875 1.78018 76.875Z" fill="#CEB364"/>
<path d="M78.2606 76.875H78.2196C77.2593 76.875 76.4805 77.5747 76.4805 78.4375C76.4805 79.3003 77.2593 80 78.2196 80H78.2606C79.2212 80 79.9998 79.3003 79.9998 78.4375C79.9998 77.5747 79.2212 76.875 78.2606 76.875Z" fill="#CEB364"/>
<path d="M73.2231 76.875H66.0869V73.5925C70.0513 72.8667 73.0438 69.7098 73.0438 65.9367C73.0438 61.6287 69.1429 58.1239 64.3481 58.1239C59.5533 58.1239 55.6524 61.6287 55.6524 65.9367C55.6524 69.7095 58.6443 72.8664 62.6086 73.5923V76.875H52.1743V15.9377C52.1743 15.0748 51.3955 14.3752 50.4352 14.3752H48.6959V9.68719C48.6959 8.82438 47.9173 8.12469 46.9567 8.12469H46.7366C46.1059 5.93188 44.1802 4.20172 41.7393 3.63531V1.5625C41.7393 0.699688 40.9605 0 40.0002 0C39.0397 0 38.261 0.699688 38.261 1.5625V3.63547C35.8202 4.20203 33.8946 5.93188 33.2642 8.12484H33.0435C32.0831 8.12484 31.3043 8.82453 31.3043 9.68734V14.3753H29.5654C28.6048 14.3753 27.8262 15.075 27.8262 15.9378V45.625H8.69587C7.73552 45.625 6.95674 46.3247 6.95674 47.1875V76.875H6.77674C5.81638 76.875 5.0376 77.5747 5.0376 78.4375C5.0376 79.3003 5.81638 80 6.77674 80H8.69587H29.5654H50.4352H73.2231C74.1836 80 74.9622 79.3003 74.9622 78.4375C74.9622 77.5747 74.1838 76.875 73.2231 76.875ZM27.8262 51.8748H24.1685C23.2079 51.8748 22.4293 52.5744 22.4293 53.4373C22.4293 54.3002 23.2079 54.9998 24.1685 54.9998H27.8262V58.1245H19.1305C18.17 58.1245 17.3914 58.8242 17.3914 59.687C17.3914 60.5498 18.17 61.2495 19.1305 61.2495H27.8262V64.3748H19.1305C18.17 64.3748 17.3914 65.0744 17.3914 65.9373C17.3914 66.8002 18.17 67.4998 19.1305 67.4998H27.8262V70.6247H19.1305C18.17 70.6247 17.3914 71.3242 17.3914 72.1872C17.3914 73.05 18.17 73.7497 19.1305 73.7497H27.8262V76.875H10.435V48.75H27.8262V51.8748ZM40.0002 6.56266C41.2842 6.56266 42.4051 7.1925 43.0077 8.12469H36.9927C37.5953 7.1925 38.7162 6.56266 40.0002 6.56266ZM34.7826 11.2497H45.2176V14.3752H34.7826V11.2497ZM48.696 76.875H31.3045V47.1875V17.5002H33.0435H46.9567H48.696V76.875ZM64.3478 67.4997C63.3871 67.4997 62.6086 68.1992 62.6086 69.0622V70.3558C60.5844 69.7106 59.1307 67.9737 59.1307 65.9367C59.1307 63.3519 61.4711 61.2489 64.3481 61.2489C67.225 61.2489 69.5655 63.3519 69.5655 65.9367C69.5655 67.9741 68.1114 69.7109 66.0869 70.3559V69.0622C66.0869 68.1992 65.3081 67.4997 64.3478 67.4997Z" fill="#CEB364"/>
</svg>
