<svg width="84" height="84" viewBox="0 0 84 84" fill="none" xmlns="http://www.w3.org/2000/svg">
<path d="M55.8666 7.67157V82H28.1333V7.67157C28.1333 4.40112 30.5333 2.02261 33.2 2.02261H50.8C53.7333 1.72529 55.8666 4.40112 55.8666 7.67157Z" stroke="#CEB364" stroke-width="4" stroke-miterlimit="10" stroke-linecap="round" stroke-linejoin="round"/>
<path d="M45.7333 24.0236H38.2666C36.9333 24.0236 36.1333 22.8343 36.1333 21.6451V12.7257C36.1333 11.2391 37.2 10.3472 38.2666 10.3472H45.7333C47.0666 10.3472 47.8666 11.5364 47.8666 12.7257V21.6451C47.8666 22.8343 47.0666 24.0236 45.7333 24.0236Z" stroke="#CEB364" stroke-width="4" stroke-miterlimit="10" stroke-linecap="round" stroke-linejoin="round"/>
<path d="M45.7333 48.7006H38.2666C36.9333 48.7006 36.1333 47.5113 36.1333 46.3221V37.4027C36.1333 35.9161 37.2 35.0242 38.2666 35.0242H45.7333C47.0666 35.0242 47.8666 36.2134 47.8666 37.4027V46.3221C47.8666 47.5113 47.0666 48.7006 45.7333 48.7006Z" stroke="#CEB364" stroke-width="4" stroke-miterlimit="10" stroke-linecap="round" stroke-linejoin="round"/>
<path d="M45.7333 73.3778H38.2666C36.9333 73.3778 36.1333 72.1886 36.1333 70.9993V62.0799C36.1333 60.5934 37.2 59.7014 38.2666 59.7014H45.7333C47.0666 59.7014 47.8666 60.8907 47.8666 62.0799V70.9993C47.8666 72.1886 47.0666 73.3778 45.7333 73.3778Z" stroke="#CEB364" stroke-width="4" stroke-miterlimit="10" stroke-linecap="round" stroke-linejoin="round"/>
<path d="M28.1333 9.75269V81.7026H6V33.5378C6 31.7539 6.53333 30.2673 7.86667 29.0781L28.1333 9.75269Z" stroke="#CEB364" stroke-width="4" stroke-miterlimit="10" stroke-linecap="round" stroke-linejoin="round"/>
<path d="M11.8667 35.9163H22.2667" stroke="#CEB364" stroke-width="4" stroke-miterlimit="10" stroke-linecap="round" stroke-linejoin="round"/>
<path d="M67.0669 31.7539V20.1587" stroke="#CEB364" stroke-width="4" stroke-miterlimit="10" stroke-linecap="round" stroke-linejoin="round"/>
<path d="M67.0669 52.5657V40.9705" stroke="#CEB364" stroke-width="4" stroke-miterlimit="10" stroke-linecap="round" stroke-linejoin="round"/>
<path d="M67.0669 73.675V61.7825" stroke="#CEB364" stroke-width="4" stroke-miterlimit="10" stroke-linecap="round" stroke-linejoin="round"/>
<path d="M11.8667 45.4302H22.2667" stroke="#CEB364" stroke-width="4" stroke-miterlimit="10" stroke-linecap="round" stroke-linejoin="round"/>
<path d="M11.8667 54.9443H22.2667" stroke="#CEB364" stroke-width="4" stroke-miterlimit="10" stroke-linecap="round" stroke-linejoin="round"/>
<path d="M11.8667 64.1611H22.2667" stroke="#CEB364" stroke-width="4" stroke-miterlimit="10" stroke-linecap="round" stroke-linejoin="round"/>
<path d="M11.8667 73.675H22.2667" stroke="#CEB364" stroke-width="4" stroke-miterlimit="10" stroke-linecap="round" stroke-linejoin="round"/>
<path d="M78 17.4827V81.7025H55.8667V11.8337H72.9334C75.6 11.8337 78 14.2123 78 17.4827Z" stroke="#CEB364" stroke-width="4" stroke-miterlimit="10" stroke-linecap="round" stroke-linejoin="round"/>
<path d="M2 81.9998H82" stroke="#CEB364" stroke-width="4" stroke-miterlimit="10" stroke-linecap="round" stroke-linejoin="round"/>
</svg>
