<svg width="35" height="43" viewBox="0 0 35 43" fill="none" xmlns="http://www.w3.org/2000/svg">
<path d="M4.375 23.375L7.1875 14.9375H27.8125L30.625 23.375M27.8125 32.75C27.0666 32.75 26.3512 32.4537 25.8238 31.9262C25.2963 31.3988 25 30.6834 25 29.9375C25 29.1916 25.2963 28.4762 25.8238 27.9488C26.3512 27.4213 27.0666 27.125 27.8125 27.125C28.5584 27.125 29.2738 27.4213 29.8012 27.9488C30.3287 28.4762 30.625 29.1916 30.625 29.9375C30.625 30.6834 30.3287 31.3988 29.8012 31.9262C29.2738 32.4537 28.5584 32.75 27.8125 32.75ZM7.1875 32.75C6.44158 32.75 5.72621 32.4537 5.19876 31.9262C4.67132 31.3988 4.375 30.6834 4.375 29.9375C4.375 29.1916 4.67132 28.4762 5.19876 27.9488C5.72621 27.4213 6.44158 27.125 7.1875 27.125C7.93342 27.125 8.64879 27.4213 9.17624 27.9488C9.70368 28.4762 10 29.1916 10 29.9375C10 30.6834 9.70368 31.3988 9.17624 31.9262C8.64879 32.4537 7.93342 32.75 7.1875 32.75ZM30.475 14C30.1 12.9125 29.05 12.125 27.8125 12.125H7.1875C5.95 12.125 4.9 12.9125 4.525 14L0.625 25.25V40.25C0.625 40.7473 0.822544 41.2242 1.17417 41.5758C1.52581 41.9275 2.00272 42.125 2.5 42.125H4.375C4.87228 42.125 5.34919 41.9275 5.70082 41.5758C6.05246 41.2242 6.25 40.7473 6.25 40.25V38.375H28.75V40.25C28.75 40.7473 28.9475 41.2242 29.2992 41.5758C29.6508 41.9275 30.1277 42.125 30.625 42.125H32.5C32.9973 42.125 33.4742 41.9275 33.8258 41.5758C34.1775 41.2242 34.375 40.7473 34.375 40.25V25.25M8.125 8.375C8.87092 8.375 9.58629 8.07868 10.1137 7.55124C10.6412 7.02379 10.9375 6.30842 10.9375 5.5625C10.9375 3.6875 8.125 0.5 8.125 0.5C8.125 0.5 5.3125 3.6875 5.3125 5.5625C5.3125 6.30842 5.60882 7.02379 6.13626 7.55124C6.66371 8.07868 7.37908 8.375 8.125 8.375ZM17.5 8.375C18.2459 8.375 18.9613 8.07868 19.4887 7.55124C20.0162 7.02379 20.3125 6.30842 20.3125 5.5625C20.3125 3.6875 17.5 0.5 17.5 0.5C17.5 0.5 14.6875 3.6875 14.6875 5.5625C14.6875 6.30842 14.9838 7.02379 15.5113 7.55124C16.0387 8.07868 16.7541 8.375 17.5 8.375ZM26.875 8.375C27.6209 8.375 28.3363 8.07868 28.8637 7.55124C29.3912 7.02379 29.6875 6.30842 29.6875 5.5625C29.6875 3.6875 26.875 0.5 26.875 0.5C26.875 0.5 24.0625 3.6875 24.0625 5.5625C24.0625 6.30842 24.3588 7.02379 24.8863 7.55124C25.4137 8.07868 26.1291 8.375 26.875 8.375Z" fill="#3E3E3E"/>
</svg>
