<svg width="45" height="45" viewBox="0 0 45 45" fill="none" xmlns="http://www.w3.org/2000/svg">
<path d="M9.375 24.375L12.1875 15.9375H32.8125L35.625 24.375M32.8125 33.75C32.0666 33.75 31.3512 33.4537 30.8238 32.9262C30.2963 32.3988 30 31.6834 30 30.9375C30 30.1916 30.2963 29.4762 30.8238 28.9488C31.3512 28.4213 32.0666 28.125 32.8125 28.125C33.5584 28.125 34.2738 28.4213 34.8012 28.9488C35.3287 29.4762 35.625 30.1916 35.625 30.9375C35.625 31.6834 35.3287 32.3988 34.8012 32.9262C34.2738 33.4537 33.5584 33.75 32.8125 33.75ZM12.1875 33.75C11.4416 33.75 10.7262 33.4537 10.1988 32.9262C9.67132 32.3988 9.375 31.6834 9.375 30.9375C9.375 30.1916 9.67132 29.4762 10.1988 28.9488C10.7262 28.4213 11.4416 28.125 12.1875 28.125C12.9334 28.125 13.6488 28.4213 14.1762 28.9488C14.7037 29.4762 15 30.1916 15 30.9375C15 31.6834 14.7037 32.3988 14.1762 32.9262C13.6488 33.4537 12.9334 33.75 12.1875 33.75ZM35.475 15C35.1 13.9125 34.05 13.125 32.8125 13.125H12.1875C10.95 13.125 9.9 13.9125 9.525 15L5.625 26.25V41.25C5.625 41.7473 5.82254 42.2242 6.17417 42.5758C6.52581 42.9275 7.00272 43.125 7.5 43.125H9.375C9.87228 43.125 10.3492 42.9275 10.7008 42.5758C11.0525 42.2242 11.25 41.7473 11.25 41.25V39.375H33.75V41.25C33.75 41.7473 33.9475 42.2242 34.2992 42.5758C34.6508 42.9275 35.1277 43.125 35.625 43.125H37.5C37.9973 43.125 38.4742 42.9275 38.8258 42.5758C39.1775 42.2242 39.375 41.7473 39.375 41.25V26.25M13.125 9.375C13.8709 9.375 14.5863 9.07868 15.1137 8.55124C15.6412 8.02379 15.9375 7.30842 15.9375 6.5625C15.9375 4.6875 13.125 1.5 13.125 1.5C13.125 1.5 10.3125 4.6875 10.3125 6.5625C10.3125 7.30842 10.6088 8.02379 11.1363 8.55124C11.6637 9.07868 12.3791 9.375 13.125 9.375ZM22.5 9.375C23.2459 9.375 23.9613 9.07868 24.4887 8.55124C25.0162 8.02379 25.3125 7.30842 25.3125 6.5625C25.3125 4.6875 22.5 1.5 22.5 1.5C22.5 1.5 19.6875 4.6875 19.6875 6.5625C19.6875 7.30842 19.9838 8.02379 20.5113 8.55124C21.0387 9.07868 21.7541 9.375 22.5 9.375ZM31.875 9.375C32.6209 9.375 33.3363 9.07868 33.8637 8.55124C34.3912 8.02379 34.6875 7.30842 34.6875 6.5625C34.6875 4.6875 31.875 1.5 31.875 1.5C31.875 1.5 29.0625 4.6875 29.0625 6.5625C29.0625 7.30842 29.3588 8.02379 29.8863 8.55124C30.4137 9.07868 31.1291 9.375 31.875 9.375Z" fill="#3E3E3E"/>
</svg>
