<svg width="18" height="18" viewBox="0 0 18 18" fill="none" xmlns="http://www.w3.org/2000/svg">
<path d="M6.62089 13.2039C4.78108 13.2039 3.22416 12.5666 1.95014 11.2919C0.676112 10.0172 0.0387616 8.46027 0.0380865 6.62114C0.0374113 4.782 0.674762 3.22508 1.95014 1.95038C3.22551 0.675681 4.78243 0.0383301 6.62089 0.0383301C8.45935 0.0383301 10.0166 0.675681 11.2927 1.95038C12.5687 3.22508 13.2057 4.782 13.2037 6.62114C13.2037 7.36381 13.0855 8.06429 12.8492 8.72257C12.6129 9.38085 12.2922 9.96318 11.8871 10.4695L17.5585 16.1409C17.7441 16.3266 17.837 16.5629 17.837 16.8498C17.837 17.1367 17.7441 17.3731 17.5585 17.5587C17.3728 17.7444 17.1365 17.8372 16.8496 17.8372C16.5626 17.8372 16.3263 17.7444 16.1406 17.5587L10.4693 11.8874C9.96293 12.2925 9.38061 12.6132 8.72233 12.8495C8.06405 13.0858 7.36357 13.2039 6.62089 13.2039ZM6.62089 11.1785C7.88682 11.1785 8.96302 10.7356 9.84951 9.84975C10.736 8.96394 11.1789 7.88773 11.1782 6.62114C11.1775 5.35454 10.7346 4.27867 9.84951 3.39354C8.96437 2.5084 7.88817 2.06516 6.62089 2.06381C5.35362 2.06246 4.27775 2.5057 3.39329 3.39354C2.50883 4.28137 2.06559 5.35724 2.06357 6.62114C2.06154 7.88503 2.50478 8.96124 3.39329 9.84975C4.2818 10.7383 5.35767 11.1812 6.62089 11.1785Z" fill="#3E3E3E"/>
</svg>
