<svg width="45" height="45" viewBox="0 0 45 45" fill="none" xmlns="http://www.w3.org/2000/svg">
<path d="M37.0688 13.5563L37.0875 13.5375L30.1125 6.5625L28.125 8.55L32.0813 12.5063C30.3188 13.1813 29.0625 14.8687 29.0625 16.875C29.0625 17.4906 29.1837 18.1001 29.4193 18.6688C29.6549 19.2375 30.0002 19.7543 30.4354 20.1896C31.3145 21.0686 32.5068 21.5625 33.75 21.5625C34.425 21.5625 35.0438 21.4125 35.625 21.1687V34.6875C35.625 35.1848 35.4275 35.6617 35.0758 36.0133C34.7242 36.365 34.2473 36.5625 33.75 36.5625C33.2527 36.5625 32.7758 36.365 32.4242 36.0133C32.0725 35.6617 31.875 35.1848 31.875 34.6875V26.25C31.875 25.2554 31.4799 24.3016 30.7766 23.5984C30.0734 22.8951 29.1196 22.5 28.125 22.5H26.25V9.375C26.25 8.38044 25.8549 7.42661 25.1516 6.72335C24.4484 6.02009 23.4946 5.625 22.5 5.625H11.25C10.2554 5.625 9.30161 6.02009 8.59835 6.72335C7.89509 7.42661 7.5 8.38044 7.5 9.375V39.375H26.25V25.3125H29.0625V34.6875C29.0625 35.9307 29.5564 37.123 30.4354 38.0021C31.3145 38.8811 32.5068 39.375 33.75 39.375C34.3656 39.375 34.9751 39.2538 35.5438 39.0182C36.1125 38.7826 36.6293 38.4373 37.0646 38.0021C37.4998 37.5668 37.8451 37.05 38.0807 36.4813C38.3163 35.9126 38.4375 35.3031 38.4375 34.6875V16.875C38.4375 15.5813 37.9125 14.4 37.0688 13.5563ZM22.5 25.3125V35.625H11.25V22.5H22.5V25.3125ZM22.5 18.75H11.25V9.375H22.5V18.75ZM33.75 18.75C33.2527 18.75 32.7758 18.5525 32.4242 18.2008C32.0725 17.8492 31.875 17.3723 31.875 16.875C31.875 16.3777 32.0725 15.9008 32.4242 15.5492C32.7758 15.1975 33.2527 15 33.75 15C34.2473 15 34.7242 15.1975 35.0758 15.5492C35.4275 15.9008 35.625 16.3777 35.625 16.875C35.625 17.3723 35.4275 17.8492 35.0758 18.2008C34.7242 18.5525 34.2473 18.75 33.75 18.75Z" fill="#3E3E3E"/>
</svg>
