<svg width="45" height="45" viewBox="0 0 45 45" fill="none" xmlns="http://www.w3.org/2000/svg">
<path d="M36.8625 18.075L36.1875 16.3125L39.675 15C37.95 11.025 34.875 7.8375 31.0125 5.8875L29.5125 9.225L27.7875 8.4375L29.2875 5.0625C27.1875 4.2375 24.9 3.75 22.5 3.75C20.5125 3.75 18.6 4.1625 16.8 4.6875L18.075 8.1375L16.3125 8.8125L15 5.325C11.025 7.05 7.8375 10.125 5.8875 13.9875L9.225 15.4875L8.4375 17.2125L5.0625 15.7125C4.2375 17.8125 3.75 20.1 3.75 22.5C3.75 24.4875 4.1625 26.4 4.6875 28.2L8.1375 26.925L8.8125 28.6875L5.325 30C7.05 33.975 10.125 37.1625 13.9875 39.1125L15.4875 35.775L17.2125 36.5625L15.7125 39.9375C17.8125 40.7625 20.1 41.25 22.5 41.25C24.4875 41.25 26.4 40.8375 28.2 40.3125L26.925 36.8625L28.6875 36.1875L30 39.675C33.975 37.95 37.1625 34.875 39.1125 31.0125L35.775 29.5125L36.5625 27.7875L39.9375 29.2875C40.7625 27.1875 41.25 24.9 41.25 22.5C41.25 20.5125 40.8375 18.6 40.3125 16.8L36.8625 18.075ZM26.8125 32.8875C21.075 35.25 14.475 32.55 12.1125 26.8125C9.75 21.075 12.45 14.475 18.1875 12.1125C23.925 9.75 30.525 12.45 32.8875 18.1875C33.457 19.5512 33.7516 21.014 33.7543 22.4919C33.757 23.9697 33.4679 25.4336 32.9034 26.7994C32.339 28.1652 31.5104 29.4061 30.4651 30.4509C29.4199 31.4956 28.1786 32.3237 26.8125 32.8875Z" fill="#3E3E3E"/>
</svg>
