<svg width="45" height="45" viewBox="0 0 45 45" fill="none" xmlns="http://www.w3.org/2000/svg">
<path d="M20.625 41.25V35.625H7.5V31.875H37.5V35.625H24.375V41.25H20.625ZM16.875 21.5625C17.4062 21.5625 17.8519 21.3825 18.2119 21.0225C18.5719 20.6625 18.7513 20.2175 18.75 19.6875C18.7487 19.1575 18.5687 18.7125 18.21 18.3525C17.8512 17.9925 17.4062 17.8125 16.875 17.8125C16.3438 17.8125 15.8988 17.9925 15.54 18.3525C15.1813 18.7125 15.0012 19.1575 15 19.6875C14.9988 20.2175 15.1788 20.6631 15.54 21.0244C15.9012 21.3856 16.3462 21.565 16.875 21.5625ZM28.125 21.5625C28.6562 21.5625 29.1019 21.3825 29.4619 21.0225C29.8219 20.6625 30.0012 20.2175 30 19.6875C29.9988 19.1575 29.8188 18.7125 29.46 18.3525C29.1012 17.9925 28.6562 17.8125 28.125 17.8125C27.5938 17.8125 27.1488 17.9925 26.79 18.3525C26.4312 18.7125 26.2512 19.1575 26.25 19.6875C26.2488 20.2175 26.4288 20.6631 26.79 21.0244C27.1513 21.3856 27.5963 21.565 28.125 21.5625ZM9.375 16.125L12.9844 5.625H32.0156L35.625 16.125V30H31.875V26.25H13.125V30H9.375V16.125ZM14.3438 13.125H30.6562L29.3438 9.375H15.6563L14.3438 13.125ZM13.125 22.5H31.875V16.875H13.125V22.5Z" fill="#3E3E3E"/>
</svg>
